<?xml version="1.0" encoding="UTF-8" standalone="no"?>
<!-- Created with Inkscape (http://www.inkscape.org/) -->

<svg
   width="1600"
   height="1600"
   viewBox="0 0 423.33334 423.33333"
   version="1.1"
   id="svg1"
   inkscape:version="1.3.2 (091e20e, 2023-11-25, custom)"
   sodipodi:docname="area.svg"
   inkscape:export-filename="..\Icones_canvi_png\location.png"
   inkscape:export-xdpi="96"
   inkscape:export-ydpi="96"
   xmlns:inkscape="http://www.inkscape.org/namespaces/inkscape"
   xmlns:sodipodi="http://sodipodi.sourceforge.net/DTD/sodipodi-0.dtd"
   xmlns="http://www.w3.org/2000/svg"
   xmlns:svg="http://www.w3.org/2000/svg">
  <sodipodi:namedview
     id="namedview1"
     pagecolor="#ffffff"
     bordercolor="#000000"
     borderopacity="0.25"
     inkscape:showpageshadow="2"
     inkscape:pageopacity="0.0"
     inkscape:pagecheckerboard="0"
     inkscape:deskcolor="#d1d1d1"
     inkscape:document-units="mm"
     inkscape:zoom="0.35055065"
     inkscape:cx="1143.9146"
     inkscape:cy="820.13827"
     inkscape:window-width="1920"
     inkscape:window-height="1001"
     inkscape:window-x="-9"
     inkscape:window-y="-9"
     inkscape:window-maximized="1"
     inkscape:current-layer="layer1" />
  <defs
     id="defs1">
    <clipPath
       clipPathUnits="userSpaceOnUse"
       id="clipPath6">
      <path
         d="M 0,1200 H 1200 V 0 H 0 Z"
         transform="translate(-841.07125,-852.41822)"
         id="path6" />
    </clipPath>
    <clipPath
       clipPathUnits="userSpaceOnUse"
       id="clipPath8">
      <path
         d="M 0,1200 H 1200 V 0 H 0 Z"
         transform="translate(-17.016075,-44.605501)"
         id="path8" />
    </clipPath>
    <clipPath
       clipPathUnits="userSpaceOnUse"
       id="clipPath10">
      <path
         d="M 0,1200 H 1200 V 0 H 0 Z"
         transform="translate(-868.5826,-765.70872)"
         id="path10" />
    </clipPath>
    <clipPath
       clipPathUnits="userSpaceOnUse"
       id="clipPath12">
      <path
         d="M 0,1200 H 1200 V 0 H 0 Z"
         transform="translate(-1203.7281)"
         id="path12" />
    </clipPath>
    <clipPath
       clipPathUnits="userSpaceOnUse"
       id="clipPath10-6">
      <path
         d="M 0,1200 H 1200 V 0 H 0 Z"
         transform="translate(-868.5826,-765.70872)"
         id="path10-4" />
    </clipPath>
    <clipPath
       clipPathUnits="userSpaceOnUse"
       id="clipPath14">
      <path
         d="M 0,1200 H 1200 V 0 H 0 Z"
         transform="translate(-991.49245,-22.001626)"
         id="path14" />
    </clipPath>
    <clipPath
       clipPathUnits="userSpaceOnUse"
       id="clipPath16">
      <path
         d="M 0,1200 H 1200 V 0 H 0 Z"
         transform="translate(-772.33074,-714.48362)"
         id="path16" />
    </clipPath>
    <clipPath
       clipPathUnits="userSpaceOnUse"
       id="clipPath18">
      <path
         d="M 0,1200 H 1200 V 0 H 0 Z"
         transform="translate(-971.77952,-888.90692)"
         id="path18" />
    </clipPath>
    <clipPath
       clipPathUnits="userSpaceOnUse"
       id="clipPath20">
      <path
         d="M 0,1200 H 1200 V 0 H 0 Z"
         transform="translate(-880.8877,-733.41972)"
         id="path20" />
    </clipPath>
    <clipPath
       clipPathUnits="userSpaceOnUse"
       id="clipPath22">
      <path
         d="M 0,1200 H 1200 V 0 H 0 Z"
         transform="translate(-724.93779,-806.99302)"
         id="path22" />
    </clipPath>
    <clipPath
       clipPathUnits="userSpaceOnUse"
       id="clipPath24">
      <path
         d="M 0,1200 H 1200 V 0 H 0 Z"
         transform="translate(-869.96852,-599.50081)"
         id="path24" />
    </clipPath>
    <clipPath
       clipPathUnits="userSpaceOnUse"
       id="clipPath26">
      <path
         d="M 0,1200 H 1200 V 0 H 0 Z"
         transform="translate(-599.94909,-644.15282)"
         id="path26" />
    </clipPath>
    <clipPath
       clipPathUnits="userSpaceOnUse"
       id="clipPath28">
      <path
         d="M 0,1200 H 1200 V 0 H 0 Z"
         transform="translate(-621.76854,-604.45811)"
         id="path28" />
    </clipPath>
    <clipPath
       clipPathUnits="userSpaceOnUse"
       id="clipPath30">
      <path
         d="M 0,1200 H 1200 V 0 H 0 Z"
         transform="translate(-650.52002,-337.31813)"
         id="path30" />
    </clipPath>
    <clipPath
       clipPathUnits="userSpaceOnUse"
       id="clipPath32">
      <path
         d="M 0,1200 H 1200 V 0 H 0 Z"
         transform="translate(-378.17911,-599.50081)"
         id="path32" />
    </clipPath>
    <clipPath
       clipPathUnits="userSpaceOnUse"
       id="clipPath34">
      <path
         d="M 0,1200 H 1200 V 0 H 0 Z"
         transform="translate(-607.05819,-336.34118)"
         id="path34" />
    </clipPath>
    <clipPath
       clipPathUnits="userSpaceOnUse"
       id="clipPath36">
      <path
         d="M 0,1200 H 1200 V 0 H 0 Z"
         transform="translate(-521.47854,-142.3554)"
         id="path36" />
    </clipPath>
    <clipPath
       clipPathUnits="userSpaceOnUse"
       id="clipPath38">
      <path
         d="M 0,1200 H 1200 V 0 H 0 Z"
         transform="translate(-663.82704,-976.38152)"
         id="path38" />
    </clipPath>
    <clipPath
       clipPathUnits="userSpaceOnUse"
       id="clipPath41">
      <path
         d="M 0,1200 H 1200 V 0 H 0 Z"
         transform="translate(-947.76302,-114.07463)"
         id="path41" />
    </clipPath>
    <clipPath
       clipPathUnits="userSpaceOnUse"
       id="clipPath43">
      <path
         d="M 0,1200 H 1200 V 0 H 0 Z"
         transform="translate(-460.76394,-621.53951)"
         id="path43" />
    </clipPath>
    <clipPath
       clipPathUnits="userSpaceOnUse"
       id="clipPath45">
      <path
         d="M 0,1200 H 1200 V 0 H 0 Z"
         transform="translate(-682.08339,-621.53951)"
         id="path45" />
    </clipPath>
    <clipPath
       clipPathUnits="userSpaceOnUse"
       id="clipPath47">
      <path
         d="M 0,1200 H 1200 V 0 H 0 Z"
         transform="translate(-905.5519,-621.53951)"
         id="path47" />
    </clipPath>
    <clipPath
       clipPathUnits="userSpaceOnUse"
       id="clipPath49">
      <path
         d="M 0,1200 H 1200 V 0 H 0 Z"
         transform="translate(-682.08339,-399.63278)"
         id="path49" />
    </clipPath>
    <clipPath
       clipPathUnits="userSpaceOnUse"
       id="clipPath51">
      <path
         d="M 0,1200 H 1200 V 0 H 0 Z"
         transform="translate(-460.76394,-399.63278)"
         id="path51" />
    </clipPath>
    <clipPath
       clipPathUnits="userSpaceOnUse"
       id="clipPath53">
      <path
         d="M 0,1200 H 1200 V 0 H 0 Z"
         transform="translate(-762.36977,-800.46422)"
         id="path53" />
    </clipPath>
    <clipPath
       clipPathUnits="userSpaceOnUse"
       id="clipPath55">
      <path
         d="M 0,1200 H 1200 V 0 H 0 Z"
         transform="translate(-591.42076,-47.776201)"
         id="path55" />
    </clipPath>
    <clipPath
       clipPathUnits="userSpaceOnUse"
       id="clipPath57">
      <path
         d="M 0,1200 H 1200 V 0 H 0 Z"
         transform="translate(-115.092,-1015.4968)"
         id="path57" />
    </clipPath>
    <clipPath
       clipPathUnits="userSpaceOnUse"
       id="clipPath59">
      <path
         d="M 0,1200 H 1200 V 0 H 0 Z"
         transform="translate(-414.50776,-664.70282)"
         id="path59" />
    </clipPath>
    <clipPath
       clipPathUnits="userSpaceOnUse"
       id="clipPath61">
      <path
         d="M 0,1200 H 1200 V 0 H 0 Z"
         transform="translate(-908.88452,-600.11752)"
         id="path61" />
    </clipPath>
    <clipPath
       clipPathUnits="userSpaceOnUse"
       id="clipPath63">
      <path
         d="M 0,1200 H 1200 V 0 H 0 Z"
         transform="translate(-1190.1308,-783.79972)"
         id="path63" />
    </clipPath>
    <clipPath
       clipPathUnits="userSpaceOnUse"
       id="clipPath65">
      <path
         d="M 0,1200 H 1200 V 0 H 0 Z"
         transform="translate(-1140.3638,-976.03752)"
         id="path65" />
    </clipPath>
    <clipPath
       clipPathUnits="userSpaceOnUse"
       id="clipPath67">
      <path
         d="M 0,1200 H 1200 V 0 H 0 Z"
         transform="translate(-1140.3863,-593.49091)"
         id="path67" />
    </clipPath>
    <clipPath
       clipPathUnits="userSpaceOnUse"
       id="clipPath69">
      <path
         d="M 0,1200 H 1200 V 0 H 0 Z"
         transform="translate(-401.70376,-1141.4133)"
         id="path69" />
    </clipPath>
    <clipPath
       clipPathUnits="userSpaceOnUse"
       id="clipPath71">
      <path
         d="M 0,1200 H 1200 V 0 H 0 Z"
         transform="translate(-783.24752,-1141.4102)"
         id="path71" />
    </clipPath>
    <clipPath
       clipPathUnits="userSpaceOnUse"
       id="clipPath73">
      <path
         d="M 0,1200 H 1200 V 0 H 0 Z"
         transform="translate(-592.35301,-1141.3953)"
         id="path73" />
    </clipPath>
    <clipPath
       clipPathUnits="userSpaceOnUse"
       id="clipPath75">
      <path
         d="M 0,1200 H 1200 V 0 H 0 Z"
         transform="translate(-974.20127,-1141.3992)"
         id="path75" />
    </clipPath>
    <clipPath
       clipPathUnits="userSpaceOnUse"
       id="clipPath77">
      <path
         d="M 0,1200 H 1200 V 0 H 0 Z"
         transform="translate(-1148.004,-1190.828)"
         id="path77" />
    </clipPath>
    <clipPath
       clipPathUnits="userSpaceOnUse"
       id="clipPath79">
      <path
         d="M 0,1200 H 1200 V 0 H 0 Z"
         transform="translate(-228.42826,-1141.4955)"
         id="path79" />
    </clipPath>
    <clipPath
       clipPathUnits="userSpaceOnUse"
       id="clipPath81">
      <path
         d="M 0,1200 H 1200 V 0 H 0 Z"
         transform="translate(-1140.3938,-402.90924)"
         id="path81" />
    </clipPath>
    <clipPath
       clipPathUnits="userSpaceOnUse"
       id="clipPath83">
      <path
         d="M 0,1200 H 1200 V 0 H 0 Z"
         transform="translate(-1140.3938,-202.82341)"
         id="path83" />
    </clipPath>
  </defs>
  <g
     inkscape:label="Capa 1"
     inkscape:groupmode="layer"
     id="layer1">
    <path
       id="path9"
       d="m 0,0 c 0,-119.282 -48.089,-227.333 -125.938,-305.822 -78.689,-79.336 -187.783,-128.469 -308.353,-128.469 -239.853,0 -434.292,194.439 -434.292,434.291 0,239.852 194.439,434.291 434.292,434.291 C -194.439,434.291 0,239.852 0,0 Z"
       style="display:none;fill:none;stroke:#891811;stroke-width:0;stroke-linecap:butt;stroke-linejoin:miter;stroke-miterlimit:10;stroke-dasharray:none;stroke-opacity:1"
       transform="matrix(0.35279157,0,0,-0.34323299,310.84454,152.02677)"
       clip-path="url(#clipPath10)"
       sodipodi:insensitive="true" />
    <path
       id="path56"
       d="m 0,0 c 0,-4.494 0,-8.989 0,-13.483 0.003,-289.181 0.005,-578.361 0.013,-867.541 0.001,-19.259 0.024,-19.27 18.702,-19.27 290.618,0.002 581.235,0.007 871.853,0.011 3.862,0 7.725,0 11.587,0 0.199,0.536 0.398,1.072 0.598,1.608 -5.17,2.044 -10.407,3.933 -15.496,6.163 -14.69,6.436 -20.653,19.705 -15.231,33.563 5.055,12.919 18.971,18.493 33.486,13.215 50.298,-18.287 100.573,-36.634 150.85,-54.977 11.533,-4.207 18.27,-12.588 18.695,-23.11 0.517,-12.758 -4.603,-21.369 -17.323,-26.033 -50.913,-18.669 -101.911,-37.107 -152.998,-55.295 -14.109,-5.023 -27.793,1.999 -32.429,15.517 -4.364,12.724 2.226,26.153 15.657,31.675 4.156,1.709 8.437,3.116 12.397,6.743 H 886.51 c -299.777,0.003 -599.553,0 -899.33,0.058 -4.907,10e-4 -9.863,0.425 -14.712,1.189 -13.616,2.144 -20.675,9.116 -22.624,22.657 -0.747,5.191 -0.572,10.535 -0.572,15.809 -0.028,299.748 -0.025,599.495 -0.088,899.242 -10e-4,4.053 0.998,8.275 -1.048,12.572 -3.635,-3.088 -4.12,-7.459 -5.669,-11.167 -6.671,-15.97 -18.563,-22.189 -33.38,-17.142 -13.127,4.47 -19.168,18.306 -13.602,34.135 10.862,30.89 22.431,61.53 33.693,92.28 7.145,19.507 14.334,38.998 21.366,58.545 4.375,12.161 12.271,18.399 23.986,18.522 11.602,0.122 20.245,-5.733 24.682,-17.822 C 14.377,116.344 29.292,74.934 44.284,33.552 47.64,24.288 51.348,15.124 54.144,5.691 58.707,-9.702 52.573,-23.168 39.749,-27.311 25.631,-31.872 12.965,-25.332 6.892,-10.347 5.452,-6.795 4.011,-3.244 2.571,0.307 1.714,0.205 0.857,0.102 0,0 Z"
       style="fill:none;stroke:#891811;stroke-width:5;stroke-linecap:butt;stroke-linejoin:miter;stroke-miterlimit:10;stroke-dasharray:none;stroke-opacity:1"
       transform="matrix(0.35277776,0,0,-0.35277776,40.310848,65.703575)"
       clip-path="url(#clipPath57)" />
    <path
       id="path58"
       d="m 0,0 c 15.34,21.056 35.497,35.206 60.385,42.058 37.287,10.265 85.918,2.773 108.639,-40.563 5.212,-9.94 7.54,-2.506 10.302,1.023 30.559,39.047 71.043,49.745 117.838,40.194 30.301,-6.185 49.195,-26.254 59.018,-54.855 5.03,-14.645 8.429,-29.866 8.468,-45.509 0.152,-60.924 0.005,-121.849 0.355,-182.771 0.055,-9.562 -3.902,-12.085 -12.666,-11.908 -20.067,0.403 -40.148,0.093 -60.224,0.139 -14.031,0.032 -14.405,0.361 -14.417,14.081 -0.041,51.064 -0.047,102.128 -0.003,153.192 0.01,11.687 -0.94,23.182 -4.805,34.334 -5.618,16.209 -16.737,25.676 -33.798,27.899 -16.64,2.168 -30.636,-3.009 -41.374,-15.946 -11.237,-13.538 -16.393,-29.527 -16.48,-46.9 -0.254,-51.415 -0.418,-102.835 0.087,-154.245 0.098,-10.012 -3.013,-12.844 -12.559,-12.59 -20.413,0.544 -40.862,0.574 -61.273,-0.002 -10.173,-0.287 -13.59,3.516 -13.534,13.489 0.286,51.415 0.133,102.832 0.064,154.248 -0.015,11.27 -0.489,22.408 -4.246,33.337 -5.89,17.136 -17.396,27.18 -35.317,28.888 -19.089,1.82 -34.519,-5.351 -45.252,-21.447 -10.247,-15.366 -11.614,-33.037 -11.704,-50.722 -0.245,-47.893 -0.063,-95.789 -0.104,-143.683 -0.011,-13.287 -0.577,-13.873 -13.533,-13.929 -19.018,-0.081 -38.037,-0.036 -57.056,-0.011 -16.474,0.021 -16.688,0.187 -16.693,16.337 -0.024,77.476 -0.013,154.953 -0.011,232.429 0.001,10.213 0.277,20.434 -0.053,30.636 -0.26,8.04 2.81,11.377 11.128,11.234 21.478,-0.368 42.974,-0.471 64.447,0.025 9.552,0.22 12.395,-3.829 11.9,-12.623 C -2.94,17.526 -2.572,9.166 -2.572,0.826 -1.715,0.551 -0.857,0.275 0,0 Z"
       style="fill:none;stroke:#891811;stroke-width:5;stroke-linecap:butt;stroke-linejoin:miter;stroke-miterlimit:10;stroke-dasharray:none;stroke-opacity:1"
       transform="matrix(0.35277776,0,0,-0.35277776,145.93807,189.45589)"
       clip-path="url(#clipPath59)" />
    <path
       id="path60"
       d="m 0,0 c -22.177,-0.009 -44.359,0.287 -66.527,-0.168 -7.803,-0.16 -10.421,2.373 -10.627,10.159 -0.914,34.673 13.64,61.741 39.562,83.664 16.37,13.845 35.296,24.482 50.073,40.335 8.756,9.395 14.377,19.766 13.656,33.094 -0.82,15.154 -9.943,24.755 -25.244,25.77 -17.481,1.16 -32.437,-5.87 -46.09,-15.545 -6.776,-4.802 -10.786,-4.299 -15.502,2.212 -4.525,6.249 -9.849,11.932 -14.968,17.735 -3.8,4.307 -3.817,8.13 0.969,11.56 34.923,25.029 72.832,35.523 114.41,20.058 C 70.971,217.247 84.739,184.575 75.866,149.241 68.646,120.49 47.919,102.89 25.414,86.59 12.314,77.102 -1.428,68.372 -12.166,56.023 c -2.642,-3.038 -7.207,-6.387 -5.103,-10.669 1.874,-3.815 7.06,-1.855 10.742,-1.879 C 17.761,43.32 42.056,43.097 66.336,43.548 75.9,43.726 79.322,40.252 79.458,30.688 79.894,0 80.173,0.005 49.633,0.008 33.089,0.011 16.544,0.009 0,0 Z"
       style="fill:none;stroke:#891811;stroke-width:5;stroke-linecap:butt;stroke-linejoin:miter;stroke-miterlimit:10;stroke-dasharray:none;stroke-opacity:1"
       transform="matrix(0.35277776,0,0,-0.35277776,320.3432,212.24015)"
       clip-path="url(#clipPath61)" />
    <path
       id="path62"
       d="m 0,0 c 0,-12.646 0.771,-25.352 -0.207,-37.922 -1.076,-13.812 -11.369,-22.522 -24.527,-22.62 -13.18,-0.098 -22.808,7.444 -24.167,21.543 -1.411,14.644 -0.787,29.491 -0.907,44.251 -0.083,10.198 -0.419,20.431 0.251,30.59 1.032,15.648 10.338,24.706 24.554,24.949 14.764,0.253 23.9,-7.718 25.215,-23.894 C 1.205,24.674 0.408,12.306 0.408,0.003 0.272,0.002 0.136,0.001 0,0 Z"
       style="fill:none;stroke:#891811;stroke-width:5;stroke-linecap:butt;stroke-linejoin:miter;stroke-miterlimit:10;stroke-dasharray:none;stroke-opacity:1"
       transform="matrix(0.35277776,0,0,-0.35277776,419.56063,147.44115)"
       clip-path="url(#clipPath63)" />
    <path
       id="path64"
       d="M 0,0 C 0.012,11.247 -0.37,22.511 0.104,33.738 0.783,49.832 10.416,59.895 24.528,60.11 38.46,60.322 48.305,51.441 49.663,35.814 51.766,11.633 51.367,-12.666 49.96,-36.854 49.033,-52.788 38.007,-62.403 24.125,-61.711 10.23,-61.019 0.577,-50.513 0.062,-34.794 -0.317,-23.208 -0.012,-11.599 0,0 Z"
       style="fill:none;stroke:#891811;stroke-width:5;stroke-linecap:butt;stroke-linejoin:miter;stroke-miterlimit:10;stroke-dasharray:none;stroke-opacity:1"
       transform="matrix(0.35277776,0,0,-0.35277776,402.00394,79.623939)"
       clip-path="url(#clipPath65)" />
    <path
       id="path66"
       d="M 0,0 C 0,11.269 -0.363,22.553 0.087,33.803 0.728,49.805 10.281,59.84 24.543,60.325 38.209,60.79 49.59,50.49 50.188,34.925 51.107,11.02 51.765,-12.974 49.769,-36.853 48.387,-53.383 38.94,-61.393 23.537,-60.784 9.518,-60.23 0.756,-50.595 -0.032,-34.864 -0.068,-34.161 -0.07,-33.456 -0.07,-32.751 -0.072,-21.834 -0.071,-10.917 -0.071,0 Z"
       style="fill:none;stroke:#891811;stroke-width:5;stroke-linecap:butt;stroke-linejoin:miter;stroke-miterlimit:10;stroke-dasharray:none;stroke-opacity:1"
       transform="matrix(0.35277776,0,0,-0.35277776,402.01187,214.57787)"
       clip-path="url(#clipPath67)" />
    <path
       id="path68"
       d="m 0,0 c -11.938,0 -23.882,-0.247 -35.811,0.062 -15.153,0.393 -24.732,9.958 -24.891,24.272 -0.157,14.123 9.388,24.744 24.267,25.082 24.563,0.56 49.158,0.535 73.722,-0.01 C 51.213,49.097 60.489,38.4 60.553,24.496 60.617,10.774 51.201,0.708 36.861,0.139 24.592,-0.348 12.288,0.038 0,0.038 0,0.025 0,0.013 0,0 Z"
       style="fill:none;stroke:#891811;stroke-width:5;stroke-linecap:butt;stroke-linejoin:miter;stroke-miterlimit:10;stroke-dasharray:none;stroke-opacity:1"
       transform="matrix(0.35277776,0,0,-0.35277776,141.42111,21.283032)"
       clip-path="url(#clipPath69)" />
    <path
       id="path70"
       d="m 0,0 c -11.625,0.003 -23.257,-0.259 -34.873,0.068 -15.275,0.43 -25.245,10.152 -25.368,24.149 -0.127,14.503 10.061,25.131 25.356,25.351 23.597,0.34 47.208,0.364 70.803,-0.043 C 51.306,49.26 61.795,38.332 61.401,24.19 61.014,10.334 50.744,0.396 35.93,0.053 23.959,-0.224 11.977,-0.003 0,0 Z"
       style="fill:none;stroke:#891811;stroke-width:5;stroke-linecap:butt;stroke-linejoin:miter;stroke-miterlimit:10;stroke-dasharray:none;stroke-opacity:1"
       transform="matrix(0.35277776,0,0,-0.35277776,276.02126,21.284125)"
       clip-path="url(#clipPath71)" />
    <path
       id="path72"
       d="m 0,0 c -11.616,0.008 -23.238,-0.244 -34.846,0.07 -15.448,0.417 -25.822,10.63 -25.84,24.895 -0.018,14.063 10.543,24.399 26.165,24.612 23.227,0.316 46.466,0.338 69.691,-0.05 C 50.922,49.264 60.497,39.312 60.488,24.415 60.478,9.46 50.973,0.294 34.847,0.029 23.234,-0.161 11.616,-0.008 0,0 Z"
       style="fill:none;stroke:#891811;stroke-width:5;stroke-linecap:butt;stroke-linejoin:miter;stroke-miterlimit:10;stroke-dasharray:none;stroke-opacity:1"
       transform="matrix(0.35277776,0,0,-0.35277776,208.67792,21.289382)"
       clip-path="url(#clipPath73)" />
    <path
       id="path74"
       d="m 0,0 c -11.613,0 -23.231,-0.226 -34.837,0.057 -14.845,0.36 -24.903,10.206 -25.262,24.216 -0.356,13.902 9.46,24.81 24.357,25.158 24.619,0.576 49.27,0.549 73.891,0.013 C 51.933,49.145 61.397,37.994 61.139,24.231 60.892,11.051 51.398,0.745 38,0.2 25.353,-0.315 12.668,0.089 0,0.089 Z"
       style="fill:none;stroke:#891811;stroke-width:5;stroke-linecap:butt;stroke-linejoin:miter;stroke-miterlimit:10;stroke-dasharray:none;stroke-opacity:1"
       transform="matrix(0.35277776,0,0,-0.35277776,343.3855,21.288006)"
       clip-path="url(#clipPath75)" />
    <path
       id="path76"
       d="m 0,0 c 38.549,0.238 43.049,-4.22 42.98,-42.838 -0.013,-7.019 0.06,-14.148 -1.085,-21.03 -2.15,-12.929 -11.81,-21.112 -23.784,-21.228 -13.32,-0.129 -23.207,7.202 -24.71,21.055 -1.143,10.532 -4.071,15.054 -15.579,15.277 -12.808,0.248 -20.492,11.271 -20.237,25.095 0.23,12.447 8.653,22.181 21.316,23.536 C -14.141,0.611 -7.038,0 0,0 Z"
       style="fill:none;stroke:#891811;stroke-width:5;stroke-linecap:butt;stroke-linejoin:miter;stroke-miterlimit:10;stroke-dasharray:none;stroke-opacity:1"
       transform="matrix(0.35277776,0,0,-0.35277776,404.69925,3.850625)"
       clip-path="url(#clipPath77)" />
    <path
       id="path78"
       d="m 0,0 c -6.676,0 -13.379,-0.383 -20.023,0.081 -13.048,0.911 -21.593,10.449 -21.886,23.805 -0.296,13.484 7.58,24.218 20.441,25.13 14.327,1.017 28.842,1.032 43.165,-0.019 C 34.491,48.059 43.589,36.518 43.086,24.428 42.51,10.587 32.891,0.701 18.973,0.013 12.664,-0.299 6.325,-0.04 0,-0.04 0,-0.027 0,-0.013 0,0 Z"
       style="fill:none;stroke:#891811;stroke-width:5;stroke-linecap:butt;stroke-linejoin:miter;stroke-miterlimit:10;stroke-dasharray:none;stroke-opacity:1"
       transform="matrix(0.35277776,0,0,-0.35277776,80.293358,21.254033)"
       clip-path="url(#clipPath79)" />
    <path
       id="path80"
       d="M 0,0 C 0,11.269 -0.364,22.553 0.087,33.804 0.728,49.805 10.281,59.84 24.543,60.325 38.209,60.79 49.589,50.49 50.188,34.925 51.107,11.02 51.764,-12.974 49.769,-36.853 48.387,-53.383 38.94,-61.392 23.536,-60.784 9.518,-60.23 0.756,-50.595 -0.032,-34.864 -0.068,-34.161 -0.07,-33.456 -0.07,-32.751 -0.072,-21.834 -0.071,-10.917 -0.071,0 Z"
       style="fill:none;stroke:#891811;stroke-width:5;stroke-linecap:butt;stroke-linejoin:miter;stroke-miterlimit:10;stroke-dasharray:none;stroke-opacity:1"
       transform="matrix(0.35277776,0,0,-0.35277776,402.01452,281.81085)"
       clip-path="url(#clipPath81)" />
    <path
       id="path82"
       d="M 0,0 C 0,11.269 -0.364,22.553 0.087,33.803 0.728,49.805 10.281,59.84 24.543,60.325 38.209,60.79 49.589,50.49 50.188,34.925 51.107,11.02 51.764,-12.974 49.769,-36.853 48.387,-53.383 38.94,-61.392 23.536,-60.784 9.518,-60.23 0.756,-50.595 -0.032,-34.864 -0.068,-34.161 -0.07,-33.456 -0.07,-32.751 -0.072,-21.834 -0.071,-10.917 -0.071,0 Z"
       style="fill:none;stroke:#891811;stroke-width:5;stroke-linecap:butt;stroke-linejoin:miter;stroke-miterlimit:10;stroke-dasharray:none;stroke-opacity:1"
       transform="matrix(0.35277776,0,0,-0.35277776,402.01452,352.39668)"
       clip-path="url(#clipPath83)" />
  </g>
</svg>
