<?xml version="1.0" encoding="UTF-8" standalone="no"?>
<!-- Created with Inkscape (http://www.inkscape.org/) -->

<svg
   width="1600"
   height="1600"
   viewBox="0 0 423.33334 423.33333"
   version="1.1"
   id="svg1"
   inkscape:version="1.3.2 (091e20e, 2023-11-25, custom)"
   sodipodi:docname="calendar.svg"
   inkscape:export-filename="..\Icones_canvi_png\lgrape.png"
   inkscape:export-xdpi="96"
   inkscape:export-ydpi="96"
   xmlns:inkscape="http://www.inkscape.org/namespaces/inkscape"
   xmlns:sodipodi="http://sodipodi.sourceforge.net/DTD/sodipodi-0.dtd"
   xmlns="http://www.w3.org/2000/svg"
   xmlns:svg="http://www.w3.org/2000/svg">
  <sodipodi:namedview
     id="namedview1"
     pagecolor="#ffffff"
     bordercolor="#000000"
     borderopacity="0.25"
     inkscape:showpageshadow="2"
     inkscape:pageopacity="0.0"
     inkscape:pagecheckerboard="0"
     inkscape:deskcolor="#d1d1d1"
     inkscape:document-units="mm"
     inkscape:zoom="0.35055065"
     inkscape:cx="1143.9146"
     inkscape:cy="820.13827"
     inkscape:window-width="1920"
     inkscape:window-height="1001"
     inkscape:window-x="-9"
     inkscape:window-y="-9"
     inkscape:window-maximized="1"
     inkscape:current-layer="layer1" />
  <defs
     id="defs1">
    <clipPath
       clipPathUnits="userSpaceOnUse"
       id="clipPath6">
      <path
         d="M 0,1200 H 1200 V 0 H 0 Z"
         transform="translate(-841.07125,-852.41822)"
         id="path6" />
    </clipPath>
    <clipPath
       clipPathUnits="userSpaceOnUse"
       id="clipPath8">
      <path
         d="M 0,1200 H 1200 V 0 H 0 Z"
         transform="translate(-17.016075,-44.605501)"
         id="path8" />
    </clipPath>
    <clipPath
       clipPathUnits="userSpaceOnUse"
       id="clipPath10">
      <path
         d="M 0,1200 H 1200 V 0 H 0 Z"
         transform="translate(-868.5826,-765.70872)"
         id="path10" />
    </clipPath>
    <clipPath
       clipPathUnits="userSpaceOnUse"
       id="clipPath12">
      <path
         d="M 0,1200 H 1200 V 0 H 0 Z"
         transform="translate(-1203.7281)"
         id="path12" />
    </clipPath>
    <clipPath
       clipPathUnits="userSpaceOnUse"
       id="clipPath10-6">
      <path
         d="M 0,1200 H 1200 V 0 H 0 Z"
         transform="translate(-868.5826,-765.70872)"
         id="path10-4" />
    </clipPath>
    <clipPath
       clipPathUnits="userSpaceOnUse"
       id="clipPath14">
      <path
         d="M 0,1200 H 1200 V 0 H 0 Z"
         transform="translate(-991.49245,-22.001626)"
         id="path14" />
    </clipPath>
    <clipPath
       clipPathUnits="userSpaceOnUse"
       id="clipPath16">
      <path
         d="M 0,1200 H 1200 V 0 H 0 Z"
         transform="translate(-772.33074,-714.48362)"
         id="path16" />
    </clipPath>
    <clipPath
       clipPathUnits="userSpaceOnUse"
       id="clipPath18">
      <path
         d="M 0,1200 H 1200 V 0 H 0 Z"
         transform="translate(-971.77952,-888.90692)"
         id="path18" />
    </clipPath>
    <clipPath
       clipPathUnits="userSpaceOnUse"
       id="clipPath20">
      <path
         d="M 0,1200 H 1200 V 0 H 0 Z"
         transform="translate(-880.8877,-733.41972)"
         id="path20" />
    </clipPath>
    <clipPath
       clipPathUnits="userSpaceOnUse"
       id="clipPath22">
      <path
         d="M 0,1200 H 1200 V 0 H 0 Z"
         transform="translate(-724.93779,-806.99302)"
         id="path22" />
    </clipPath>
    <clipPath
       clipPathUnits="userSpaceOnUse"
       id="clipPath24">
      <path
         d="M 0,1200 H 1200 V 0 H 0 Z"
         transform="translate(-869.96852,-599.50081)"
         id="path24" />
    </clipPath>
    <clipPath
       clipPathUnits="userSpaceOnUse"
       id="clipPath26">
      <path
         d="M 0,1200 H 1200 V 0 H 0 Z"
         transform="translate(-599.94909,-644.15282)"
         id="path26" />
    </clipPath>
    <clipPath
       clipPathUnits="userSpaceOnUse"
       id="clipPath28">
      <path
         d="M 0,1200 H 1200 V 0 H 0 Z"
         transform="translate(-621.76854,-604.45811)"
         id="path28" />
    </clipPath>
    <clipPath
       clipPathUnits="userSpaceOnUse"
       id="clipPath30">
      <path
         d="M 0,1200 H 1200 V 0 H 0 Z"
         transform="translate(-650.52002,-337.31813)"
         id="path30" />
    </clipPath>
    <clipPath
       clipPathUnits="userSpaceOnUse"
       id="clipPath32">
      <path
         d="M 0,1200 H 1200 V 0 H 0 Z"
         transform="translate(-378.17911,-599.50081)"
         id="path32" />
    </clipPath>
    <clipPath
       clipPathUnits="userSpaceOnUse"
       id="clipPath34">
      <path
         d="M 0,1200 H 1200 V 0 H 0 Z"
         transform="translate(-607.05819,-336.34118)"
         id="path34" />
    </clipPath>
    <clipPath
       clipPathUnits="userSpaceOnUse"
       id="clipPath36">
      <path
         d="M 0,1200 H 1200 V 0 H 0 Z"
         transform="translate(-521.47854,-142.3554)"
         id="path36" />
    </clipPath>
    <clipPath
       clipPathUnits="userSpaceOnUse"
       id="clipPath38">
      <path
         d="M 0,1200 H 1200 V 0 H 0 Z"
         transform="translate(-663.82704,-976.38152)"
         id="path38" />
    </clipPath>
    <clipPath
       clipPathUnits="userSpaceOnUse"
       id="clipPath41">
      <path
         d="M 0,1200 H 1200 V 0 H 0 Z"
         transform="translate(-947.76302,-114.07463)"
         id="path41" />
    </clipPath>
    <clipPath
       clipPathUnits="userSpaceOnUse"
       id="clipPath43">
      <path
         d="M 0,1200 H 1200 V 0 H 0 Z"
         transform="translate(-460.76394,-621.53951)"
         id="path43" />
    </clipPath>
    <clipPath
       clipPathUnits="userSpaceOnUse"
       id="clipPath45">
      <path
         d="M 0,1200 H 1200 V 0 H 0 Z"
         transform="translate(-682.08339,-621.53951)"
         id="path45" />
    </clipPath>
    <clipPath
       clipPathUnits="userSpaceOnUse"
       id="clipPath47">
      <path
         d="M 0,1200 H 1200 V 0 H 0 Z"
         transform="translate(-905.5519,-621.53951)"
         id="path47" />
    </clipPath>
    <clipPath
       clipPathUnits="userSpaceOnUse"
       id="clipPath49">
      <path
         d="M 0,1200 H 1200 V 0 H 0 Z"
         transform="translate(-682.08339,-399.63278)"
         id="path49" />
    </clipPath>
    <clipPath
       clipPathUnits="userSpaceOnUse"
       id="clipPath51">
      <path
         d="M 0,1200 H 1200 V 0 H 0 Z"
         transform="translate(-460.76394,-399.63278)"
         id="path51" />
    </clipPath>
  </defs>
  <g
     inkscape:label="Capa 1"
     inkscape:groupmode="layer"
     id="layer1">
    <path
       id="path9"
       d="m 0,0 c 0,-119.282 -48.089,-227.333 -125.938,-305.822 -78.689,-79.336 -187.783,-128.469 -308.353,-128.469 -239.853,0 -434.292,194.439 -434.292,434.291 0,239.852 194.439,434.291 434.292,434.291 C -194.439,434.291 0,239.852 0,0 Z"
       style="display:none;fill:none;stroke:#891811;stroke-width:0;stroke-linecap:butt;stroke-linejoin:miter;stroke-miterlimit:10;stroke-dasharray:none;stroke-opacity:1"
       transform="matrix(0.35279157,0,0,-0.34323299,310.84454,152.02677)"
       clip-path="url(#clipPath10)"
       sodipodi:insensitive="true" />
    <path
       id="path39"
       d="M 39.27988,120.54479 H 385.27267"
       style="fill:none;stroke:#891811;stroke-width:1.76389;stroke-linecap:butt;stroke-linejoin:miter;stroke-miterlimit:10;stroke-dasharray:none;stroke-opacity:1" />
    <path
       id="path40"
       d="m 0,0 h -695.526 c -78.441,0 -142.62,64.179 -142.62,142.62 v 695.526 c 0,78.442 64.179,142.621 142.62,142.621 H 0 c 78.441,0 142.621,-64.179 142.621,-142.621 V 142.62 C 142.621,64.179 78.441,0 0,0 Z"
       style="fill:none;stroke:#891811;stroke-width:5;stroke-linecap:butt;stroke-linejoin:miter;stroke-miterlimit:10;stroke-dasharray:none;stroke-opacity:1"
       transform="matrix(0.35277776,0,0,-0.35277776,334.95934,388.72888)"
       clip-path="url(#clipPath41)" />
    <path
       id="path42"
       d="m 0,0 c 0,-40.187 -32.578,-72.764 -72.764,-72.764 -40.187,0 -72.765,32.577 -72.765,72.764 0,40.187 32.578,72.764 72.765,72.764 C -32.578,72.764 0,40.187 0,0 Z"
       style="fill:none;stroke:#891811;stroke-width:5;stroke-linecap:butt;stroke-linejoin:miter;stroke-miterlimit:10;stroke-dasharray:none;stroke-opacity:1"
       transform="matrix(0.35277776,0,0,-0.35277776,163.15689,209.70655)"
       clip-path="url(#clipPath43)" />
    <path
       id="path44"
       d="m 0,0 c 0,-40.187 -32.578,-72.764 -72.764,-72.764 -40.187,0 -72.765,32.577 -72.765,72.764 0,40.187 32.578,72.764 72.765,72.764 C -32.578,72.764 0,40.187 0,0 Z"
       style="fill:none;stroke:#891811;stroke-width:5;stroke-linecap:butt;stroke-linejoin:miter;stroke-miterlimit:10;stroke-dasharray:none;stroke-opacity:1"
       transform="matrix(0.35277776,0,0,-0.35277776,241.23348,209.70655)"
       clip-path="url(#clipPath45)" />
    <path
       id="path46"
       d="m 0,0 c 0,-40.187 -32.578,-72.764 -72.764,-72.764 -40.187,0 -72.765,32.577 -72.765,72.764 0,40.187 32.578,72.764 72.765,72.764 C -32.578,72.764 0,40.187 0,0 Z"
       style="fill:none;stroke:#891811;stroke-width:5;stroke-linecap:butt;stroke-linejoin:miter;stroke-miterlimit:10;stroke-dasharray:none;stroke-opacity:1"
       transform="matrix(0.35277776,0,0,-0.35277776,320.0682,209.70655)"
       clip-path="url(#clipPath47)" />
    <path
       id="path48"
       d="m 0,0 c 0,-40.187 -32.578,-72.764 -72.764,-72.764 -40.187,0 -72.765,32.577 -72.765,72.764 0,40.187 32.578,72.764 72.765,72.764 C -32.578,72.764 0,40.187 0,0 Z"
       style="fill:none;stroke:#891811;stroke-width:5;stroke-linecap:butt;stroke-linejoin:miter;stroke-miterlimit:10;stroke-dasharray:none;stroke-opacity:1"
       transform="matrix(0.35277776,0,0,-0.35277776,241.23348,287.99031)"
       clip-path="url(#clipPath49)" />
    <path
       id="path50"
       d="m 0,0 c 0,-40.187 -32.578,-72.764 -72.764,-72.764 -40.187,0 -72.765,32.577 -72.765,72.764 0,40.187 32.578,72.764 72.765,72.764 C -32.578,72.764 0,40.187 0,0 Z"
       style="fill:none;stroke:#891811;stroke-width:5;stroke-linecap:butt;stroke-linejoin:miter;stroke-miterlimit:10;stroke-dasharray:none;stroke-opacity:1"
       transform="matrix(0.35277776,0,0,-0.35277776,163.15689,287.99031)"
       clip-path="url(#clipPath51)" />
  </g>
</svg>
