<?xml version="1.0" encoding="UTF-8" standalone="no"?>
<!-- Created with Inkscape (http://www.inkscape.org/) -->

<svg
   width="1600"
   height="1600"
   viewBox="0 0 423.33334 423.33333"
   version="1.1"
   id="svg1"
   inkscape:version="1.3.2 (091e20e, 2023-11-25, custom)"
   sodipodi:docname="do.svg"
   inkscape:export-filename="..\Icones_canvi_png\crop.png"
   inkscape:export-xdpi="96"
   inkscape:export-ydpi="96"
   xmlns:inkscape="http://www.inkscape.org/namespaces/inkscape"
   xmlns:sodipodi="http://sodipodi.sourceforge.net/DTD/sodipodi-0.dtd"
   xmlns="http://www.w3.org/2000/svg"
   xmlns:svg="http://www.w3.org/2000/svg">
  <sodipodi:namedview
     id="namedview1"
     pagecolor="#ffffff"
     bordercolor="#000000"
     borderopacity="0.25"
     inkscape:showpageshadow="2"
     inkscape:pageopacity="0.0"
     inkscape:pagecheckerboard="0"
     inkscape:deskcolor="#d1d1d1"
     inkscape:document-units="mm"
     inkscape:zoom="0.24787674"
     inkscape:cx="665.65342"
     inkscape:cy="986.37735"
     inkscape:window-width="1920"
     inkscape:window-height="1001"
     inkscape:window-x="-9"
     inkscape:window-y="-9"
     inkscape:window-maximized="1"
     inkscape:current-layer="layer1" />
  <defs
     id="defs1">
    <clipPath
       clipPathUnits="userSpaceOnUse"
       id="clipPath6">
      <path
         d="M 0,1200 H 1200 V 0 H 0 Z"
         transform="translate(-841.07125,-852.41822)"
         id="path6" />
    </clipPath>
    <clipPath
       clipPathUnits="userSpaceOnUse"
       id="clipPath8">
      <path
         d="M 0,1200 H 1200 V 0 H 0 Z"
         transform="translate(-17.016075,-44.605501)"
         id="path8" />
    </clipPath>
    <clipPath
       clipPathUnits="userSpaceOnUse"
       id="clipPath10">
      <path
         d="M 0,1200 H 1200 V 0 H 0 Z"
         transform="translate(-868.5826,-765.70872)"
         id="path10" />
    </clipPath>
    <clipPath
       clipPathUnits="userSpaceOnUse"
       id="clipPath12">
      <path
         d="M 0,1200 H 1200 V 0 H 0 Z"
         transform="translate(-1203.7281)"
         id="path12" />
    </clipPath>
    <clipPath
       clipPathUnits="userSpaceOnUse"
       id="clipPath10-6">
      <path
         d="M 0,1200 H 1200 V 0 H 0 Z"
         transform="translate(-868.5826,-765.70872)"
         id="path10-4" />
    </clipPath>
    <clipPath
       clipPathUnits="userSpaceOnUse"
       id="clipPath14">
      <path
         d="M 0,1200 H 1200 V 0 H 0 Z"
         transform="translate(-991.49245,-22.001626)"
         id="path14" />
    </clipPath>
    <clipPath
       clipPathUnits="userSpaceOnUse"
       id="clipPath16">
      <path
         d="M 0,1200 H 1200 V 0 H 0 Z"
         transform="translate(-772.33074,-714.48362)"
         id="path16" />
    </clipPath>
    <clipPath
       clipPathUnits="userSpaceOnUse"
       id="clipPath18">
      <path
         d="M 0,1200 H 1200 V 0 H 0 Z"
         transform="translate(-971.77952,-888.90692)"
         id="path18" />
    </clipPath>
    <clipPath
       clipPathUnits="userSpaceOnUse"
       id="clipPath20">
      <path
         d="M 0,1200 H 1200 V 0 H 0 Z"
         transform="translate(-880.8877,-733.41972)"
         id="path20" />
    </clipPath>
    <clipPath
       clipPathUnits="userSpaceOnUse"
       id="clipPath22">
      <path
         d="M 0,1200 H 1200 V 0 H 0 Z"
         transform="translate(-724.93779,-806.99302)"
         id="path22" />
    </clipPath>
    <clipPath
       clipPathUnits="userSpaceOnUse"
       id="clipPath24">
      <path
         d="M 0,1200 H 1200 V 0 H 0 Z"
         transform="translate(-869.96852,-599.50081)"
         id="path24" />
    </clipPath>
    <clipPath
       clipPathUnits="userSpaceOnUse"
       id="clipPath26">
      <path
         d="M 0,1200 H 1200 V 0 H 0 Z"
         transform="translate(-599.94909,-644.15282)"
         id="path26" />
    </clipPath>
    <clipPath
       clipPathUnits="userSpaceOnUse"
       id="clipPath28">
      <path
         d="M 0,1200 H 1200 V 0 H 0 Z"
         transform="translate(-621.76854,-604.45811)"
         id="path28" />
    </clipPath>
    <clipPath
       clipPathUnits="userSpaceOnUse"
       id="clipPath30">
      <path
         d="M 0,1200 H 1200 V 0 H 0 Z"
         transform="translate(-650.52002,-337.31813)"
         id="path30" />
    </clipPath>
    <clipPath
       clipPathUnits="userSpaceOnUse"
       id="clipPath32">
      <path
         d="M 0,1200 H 1200 V 0 H 0 Z"
         transform="translate(-378.17911,-599.50081)"
         id="path32" />
    </clipPath>
    <clipPath
       clipPathUnits="userSpaceOnUse"
       id="clipPath34">
      <path
         d="M 0,1200 H 1200 V 0 H 0 Z"
         transform="translate(-607.05819,-336.34118)"
         id="path34" />
    </clipPath>
    <clipPath
       clipPathUnits="userSpaceOnUse"
       id="clipPath36">
      <path
         d="M 0,1200 H 1200 V 0 H 0 Z"
         transform="translate(-521.47854,-142.3554)"
         id="path36" />
    </clipPath>
    <clipPath
       clipPathUnits="userSpaceOnUse"
       id="clipPath38">
      <path
         d="M 0,1200 H 1200 V 0 H 0 Z"
         transform="translate(-663.82704,-976.38152)"
         id="path38" />
    </clipPath>
    <clipPath
       clipPathUnits="userSpaceOnUse"
       id="clipPath41">
      <path
         d="M 0,1200 H 1200 V 0 H 0 Z"
         transform="translate(-947.76302,-114.07463)"
         id="path41" />
    </clipPath>
    <clipPath
       clipPathUnits="userSpaceOnUse"
       id="clipPath43">
      <path
         d="M 0,1200 H 1200 V 0 H 0 Z"
         transform="translate(-460.76394,-621.53951)"
         id="path43" />
    </clipPath>
    <clipPath
       clipPathUnits="userSpaceOnUse"
       id="clipPath45">
      <path
         d="M 0,1200 H 1200 V 0 H 0 Z"
         transform="translate(-682.08339,-621.53951)"
         id="path45" />
    </clipPath>
    <clipPath
       clipPathUnits="userSpaceOnUse"
       id="clipPath47">
      <path
         d="M 0,1200 H 1200 V 0 H 0 Z"
         transform="translate(-905.5519,-621.53951)"
         id="path47" />
    </clipPath>
    <clipPath
       clipPathUnits="userSpaceOnUse"
       id="clipPath49">
      <path
         d="M 0,1200 H 1200 V 0 H 0 Z"
         transform="translate(-682.08339,-399.63278)"
         id="path49" />
    </clipPath>
    <clipPath
       clipPathUnits="userSpaceOnUse"
       id="clipPath51">
      <path
         d="M 0,1200 H 1200 V 0 H 0 Z"
         transform="translate(-460.76394,-399.63278)"
         id="path51" />
    </clipPath>
    <clipPath
       clipPathUnits="userSpaceOnUse"
       id="clipPath53">
      <path
         d="M 0,1200 H 1200 V 0 H 0 Z"
         transform="translate(-762.36977,-800.46422)"
         id="path53" />
    </clipPath>
    <clipPath
       clipPathUnits="userSpaceOnUse"
       id="clipPath55">
      <path
         d="M 0,1200 H 1200 V 0 H 0 Z"
         transform="translate(-591.42076,-47.776201)"
         id="path55" />
    </clipPath>
    <clipPath
       clipPathUnits="userSpaceOnUse"
       id="clipPath57">
      <path
         d="M 0,1200 H 1200 V 0 H 0 Z"
         transform="translate(-115.092,-1015.4968)"
         id="path57" />
    </clipPath>
    <clipPath
       clipPathUnits="userSpaceOnUse"
       id="clipPath59">
      <path
         d="M 0,1200 H 1200 V 0 H 0 Z"
         transform="translate(-414.50776,-664.70282)"
         id="path59" />
    </clipPath>
    <clipPath
       clipPathUnits="userSpaceOnUse"
       id="clipPath61">
      <path
         d="M 0,1200 H 1200 V 0 H 0 Z"
         transform="translate(-908.88452,-600.11752)"
         id="path61" />
    </clipPath>
    <clipPath
       clipPathUnits="userSpaceOnUse"
       id="clipPath63">
      <path
         d="M 0,1200 H 1200 V 0 H 0 Z"
         transform="translate(-1190.1308,-783.79972)"
         id="path63" />
    </clipPath>
    <clipPath
       clipPathUnits="userSpaceOnUse"
       id="clipPath65">
      <path
         d="M 0,1200 H 1200 V 0 H 0 Z"
         transform="translate(-1140.3638,-976.03752)"
         id="path65" />
    </clipPath>
    <clipPath
       clipPathUnits="userSpaceOnUse"
       id="clipPath67">
      <path
         d="M 0,1200 H 1200 V 0 H 0 Z"
         transform="translate(-1140.3863,-593.49091)"
         id="path67" />
    </clipPath>
    <clipPath
       clipPathUnits="userSpaceOnUse"
       id="clipPath69">
      <path
         d="M 0,1200 H 1200 V 0 H 0 Z"
         transform="translate(-401.70376,-1141.4133)"
         id="path69" />
    </clipPath>
    <clipPath
       clipPathUnits="userSpaceOnUse"
       id="clipPath71">
      <path
         d="M 0,1200 H 1200 V 0 H 0 Z"
         transform="translate(-783.24752,-1141.4102)"
         id="path71" />
    </clipPath>
    <clipPath
       clipPathUnits="userSpaceOnUse"
       id="clipPath73">
      <path
         d="M 0,1200 H 1200 V 0 H 0 Z"
         transform="translate(-592.35301,-1141.3953)"
         id="path73" />
    </clipPath>
    <clipPath
       clipPathUnits="userSpaceOnUse"
       id="clipPath75">
      <path
         d="M 0,1200 H 1200 V 0 H 0 Z"
         transform="translate(-974.20127,-1141.3992)"
         id="path75" />
    </clipPath>
    <clipPath
       clipPathUnits="userSpaceOnUse"
       id="clipPath77">
      <path
         d="M 0,1200 H 1200 V 0 H 0 Z"
         transform="translate(-1148.004,-1190.828)"
         id="path77" />
    </clipPath>
    <clipPath
       clipPathUnits="userSpaceOnUse"
       id="clipPath79">
      <path
         d="M 0,1200 H 1200 V 0 H 0 Z"
         transform="translate(-228.42826,-1141.4955)"
         id="path79" />
    </clipPath>
    <clipPath
       clipPathUnits="userSpaceOnUse"
       id="clipPath81">
      <path
         d="M 0,1200 H 1200 V 0 H 0 Z"
         transform="translate(-1140.3938,-402.90924)"
         id="path81" />
    </clipPath>
    <clipPath
       clipPathUnits="userSpaceOnUse"
       id="clipPath83">
      <path
         d="M 0,1200 H 1200 V 0 H 0 Z"
         transform="translate(-1140.3938,-202.82341)"
         id="path83" />
    </clipPath>
    <clipPath
       clipPathUnits="userSpaceOnUse"
       id="clipPath85">
      <path
         d="M 0,1200 H 1200 V 0 H 0 Z"
         transform="translate(-564.12676,-1083.5258)"
         id="path85" />
    </clipPath>
    <clipPath
       clipPathUnits="userSpaceOnUse"
       id="clipPath87">
      <path
         d="M 0,1200 H 1200 V 0 H 0 Z"
         transform="translate(-600.48902,-416.01984)"
         id="path87" />
    </clipPath>
    <clipPath
       clipPathUnits="userSpaceOnUse"
       id="clipPath89">
      <path
         d="M 0,1200 H 1200 V 0 H 0 Z"
         transform="translate(-193.2525,-204.77288)"
         id="path89" />
    </clipPath>
    <clipPath
       clipPathUnits="userSpaceOnUse"
       id="clipPath93">
      <path
         d="M 0,1200 H 1200 V 0 H 0 Z"
         transform="translate(-346.49851,-962.06963)"
         id="path93" />
    </clipPath>
    <clipPath
       clipPathUnits="userSpaceOnUse"
       id="clipPath96">
      <path
         d="M 0,1200 H 1200 V 0 H 0 Z"
         transform="translate(-750.60902,-373.95481)"
         id="path96" />
    </clipPath>
    <clipPath
       clipPathUnits="userSpaceOnUse"
       id="clipPath98">
      <path
         d="M 0,1200 H 1200 V 0 H 0 Z"
         transform="translate(-598.64851,-36.834601)"
         id="path98" />
    </clipPath>
    <clipPath
       clipPathUnits="userSpaceOnUse"
       id="clipPath100">
      <path
         d="M 0,1200 H 1200 V 0 H 0 Z"
         transform="translate(-1087.407,-871.32682)"
         id="path100" />
    </clipPath>
    <clipPath
       clipPathUnits="userSpaceOnUse"
       id="clipPath100-1">
      <path
         d="M 0,1200 H 1200 V 0 H 0 Z"
         transform="translate(-1087.407,-871.32682)"
         id="path100-8" />
    </clipPath>
    <clipPath
       clipPathUnits="userSpaceOnUse"
       id="clipPath102">
      <path
         d="M 0,1200 H 1200 V 0 H 0 Z"
         transform="translate(-689.50877,-231.37958)"
         id="path102" />
    </clipPath>
    <clipPath
       clipPathUnits="userSpaceOnUse"
       id="clipPath104">
      <path
         d="M 0,1200 H 1200 V 0 H 0 Z"
         transform="translate(-437.74201,-210.74378)"
         id="path104" />
    </clipPath>
    <clipPath
       clipPathUnits="userSpaceOnUse"
       id="clipPath106">
      <path
         d="M 0,1200 H 1200 V 0 H 0 Z"
         transform="translate(-902.68802,-501.15431)"
         id="path106" />
    </clipPath>
    <clipPath
       clipPathUnits="userSpaceOnUse"
       id="clipPath108">
      <path
         d="M 0,1200 H 1200 V 0 H 0 Z"
         transform="translate(-844.87577,-316.07303)"
         id="path108" />
    </clipPath>
    <clipPath
       clipPathUnits="userSpaceOnUse"
       id="clipPath110">
      <path
         d="M 0,1200 H 1200 V 0 H 0 Z"
         transform="translate(-769.75127,-160.0926)"
         id="path110" />
    </clipPath>
    <clipPath
       clipPathUnits="userSpaceOnUse"
       id="clipPath112">
      <path
         d="M 0,1200 H 1200 V 0 H 0 Z"
         transform="translate(-1003.9725,-391.29233)"
         id="path112" />
    </clipPath>
    <clipPath
       clipPathUnits="userSpaceOnUse"
       id="clipPath114">
      <path
         d="M 0,1200 H 1200 V 0 H 0 Z"
         transform="translate(-540.73651,-249.79741)"
         id="path114" />
    </clipPath>
    <clipPath
       clipPathUnits="userSpaceOnUse"
       id="clipPath116">
      <path
         d="M 0,1200 H 1200 V 0 H 0 Z"
         transform="translate(-576.31876,-130.8762)"
         id="path116" />
    </clipPath>
    <clipPath
       clipPathUnits="userSpaceOnUse"
       id="clipPath118">
      <path
         d="M 0,1200 H 1200 V 0 H 0 Z"
         transform="translate(-748.55477,-341.36768)"
         id="path118" />
    </clipPath>
    <clipPath
       clipPathUnits="userSpaceOnUse"
       id="clipPath120">
      <path
         d="M 0,1200 H 1200 V 0 H 0 Z"
         transform="translate(-983.18102,-280.09223)"
         id="path120" />
    </clipPath>
    <clipPath
       clipPathUnits="userSpaceOnUse"
       id="clipPath122">
      <path
         d="M 0,1200 H 1200 V 0 H 0 Z"
         transform="translate(-1001.4405,-521.35171)"
         id="path122" />
    </clipPath>
    <clipPath
       clipPathUnits="userSpaceOnUse"
       id="clipPath124">
      <path
         d="M 0,1200 H 1200 V 0 H 0 Z"
         transform="translate(-305.01451,-349.51118)"
         id="path124" />
    </clipPath>
    <clipPath
       clipPathUnits="userSpaceOnUse"
       id="clipPath126">
      <path
         d="M 0,1200 H 1200 V 0 H 0 Z"
         transform="translate(-646.41377,-341.38568)"
         id="path126" />
    </clipPath>
    <clipPath
       clipPathUnits="userSpaceOnUse"
       id="clipPath128">
      <path
         d="M 0,1200 H 1200 V 0 H 0 Z"
         transform="translate(-783.73577,-457.29761)"
         id="path128" />
    </clipPath>
    <clipPath
       clipPathUnits="userSpaceOnUse"
       id="clipPath130">
      <path
         d="M 0,1200 H 1200 V 0 H 0 Z"
         transform="translate(-346.74751,-479.42721)"
         id="path130" />
    </clipPath>
    <clipPath
       clipPathUnits="userSpaceOnUse"
       id="clipPath132">
      <path
         d="M 0,1200 H 1200 V 0 H 0 Z"
         transform="translate(-210.45376,-457.26041)"
         id="path132" />
    </clipPath>
    <clipPath
       clipPathUnits="userSpaceOnUse"
       id="clipPath134">
      <path
         d="M 0,1200 H 1200 V 0 H 0 Z"
         transform="translate(-169.1985,-336.80911)"
         id="path134" />
    </clipPath>
    <clipPath
       clipPathUnits="userSpaceOnUse"
       id="clipPath136">
      <path
         d="M 0,1200 H 1200 V 0 H 0 Z"
         transform="translate(-458.40601,-369.17821)"
         id="path136" />
    </clipPath>
    <clipPath
       clipPathUnits="userSpaceOnUse"
       id="clipPath138">
      <path
         d="M 0,1200 H 1200 V 0 H 0 Z"
         transform="translate(-325.70026,-250.92721)"
         id="path138" />
    </clipPath>
    <clipPath
       clipPathUnits="userSpaceOnUse"
       id="clipPath140">
      <path
         d="M 0,1200 H 1200 V 0 H 0 Z"
         transform="translate(-270.81076,-722.77152)"
         id="path140" />
    </clipPath>
    <clipPath
       clipPathUnits="userSpaceOnUse"
       id="clipPath142">
      <path
         d="M 0,1200 H 1200 V 0 H 0 Z"
         transform="translate(-781.76252,-679.53052)"
         id="path142" />
    </clipPath>
    <clipPath
       clipPathUnits="userSpaceOnUse"
       id="clipPath144">
      <path
         d="M 0,1200 H 1200 V 0 H 0 Z"
         transform="translate(-856.78427,-737.98352)"
         id="path144" />
    </clipPath>
    <clipPath
       clipPathUnits="userSpaceOnUse"
       id="clipPath146">
      <path
         d="M 0,1200 H 1200 V 0 H 0 Z"
         transform="translate(-1029.519,-790.82362)"
         id="path146" />
    </clipPath>
    <clipPath
       clipPathUnits="userSpaceOnUse"
       id="clipPath148">
      <path
         d="M 0,1200 H 1200 V 0 H 0 Z"
         transform="translate(-345.07351,-700.96822)"
         id="path148" />
    </clipPath>
    <clipPath
       clipPathUnits="userSpaceOnUse"
       id="clipPath150">
      <path
         d="M 0,1200 H 1200 V 0 H 0 Z"
         transform="translate(-516.44251,-648.09581)"
         id="path150" />
    </clipPath>
    <clipPath
       clipPathUnits="userSpaceOnUse"
       id="clipPath152">
      <path
         d="M 0,1200 H 1200 V 0 H 0 Z"
         transform="translate(-271.46776,-595.79471)"
         id="path152" />
    </clipPath>
    <clipPath
       clipPathUnits="userSpaceOnUse"
       id="clipPath154">
      <path
         d="M 0,1200 H 1200 V 0 H 0 Z"
         transform="translate(-347.13676,-567.43012)"
         id="path154" />
    </clipPath>
    <clipPath
       clipPathUnits="userSpaceOnUse"
       id="clipPath156">
      <path
         d="M 0,1200 H 1200 V 0 H 0 Z"
         transform="translate(-0.01425,-1029.5887)"
         id="path156" />
    </clipPath>
    <clipPath
       clipPathUnits="userSpaceOnUse"
       id="clipPath158">
      <path
         d="M 0,1200 H 1200 V 0 H 0 Z"
         transform="translate(-756.59552,-230.31211)"
         id="path158" />
    </clipPath>
    <clipPath
       clipPathUnits="userSpaceOnUse"
       id="clipPath160">
      <path
         d="M 0,1200 H 1200 V 0 H 0 Z"
         transform="translate(-599.44201,-132.70163)"
         id="path160" />
    </clipPath>
    <clipPath
       clipPathUnits="userSpaceOnUse"
       id="clipPath162">
      <path
         d="M 0,1200 H 1200 V 0 H 0 Z"
         transform="translate(-544.45201,-364.68548)"
         id="path162" />
    </clipPath>
  </defs>
  <g
     inkscape:label="Capa 1"
     inkscape:groupmode="layer"
     id="layer1">
    <path
       id="path9"
       d="m 0,0 c 0,-119.282 -48.089,-227.333 -125.938,-305.822 -78.689,-79.336 -187.783,-128.469 -308.353,-128.469 -239.853,0 -434.292,194.439 -434.292,434.291 0,239.852 194.439,434.291 434.292,434.291 C -194.439,434.291 0,239.852 0,0 Z"
       style="display:none;fill:none;stroke:#891811;stroke-width:0;stroke-linecap:butt;stroke-linejoin:miter;stroke-miterlimit:10;stroke-dasharray:none;stroke-opacity:1"
       transform="matrix(0.35279157,0,0,-0.34323299,310.84454,152.02677)"
       clip-path="url(#clipPath10)"
       sodipodi:insensitive="true" />
    <path
       id="path159"
       d="M 0,0 C 256.942,-1.453 466.863,207.988 468.048,464.996 469.229,721.436 262.822,934.324 1.818,934.927 -260.833,935.534 -465.915,723.265 -467.191,469.608 -468.501,209.22 -256.229,-1.245 0,0 Z m -260.484,995.902 c 23.148,0.526 43.976,-3.751 64.543,-8.028 42.618,-8.862 78.225,3.228 109.583,32 12.352,11.332 25.751,21.493 39.699,30.839 33.12,22.192 61.162,22.047 94.353,-0.034 17.115,-11.386 32.884,-24.554 48.342,-37.924 29.963,-25.916 63.954,-31.997 101.818,-24.802 21.92,4.165 43.873,8.257 66.437,8.101 25.749,-0.178 45.461,-10.628 59.568,-31.97 11.756,-17.784 18.585,-37.825 26.223,-57.495 5.272,-13.577 10.48,-27.179 17.662,-39.919 12.114,-21.487 31.737,-33.408 53.634,-42.628 23.431,-9.867 47.983,-16.983 70.242,-29.756 28.956,-16.616 39.737,-41.697 37.409,-74.155 -1.958,-27.286 -8.408,-53.924 -10.257,-81.242 -1.856,-27.408 7.217,-50.344 23.852,-71.4 13.465,-17.043 28.077,-33.234 39.974,-51.469 25.292,-38.766 24.409,-65.358 -3.426,-102.613 -9.103,-12.184 -18.087,-24.586 -28.389,-35.719 -29.43,-31.801 -37.404,-68.487 -29.172,-110.411 4.519,-23.018 8.975,-46.253 7.298,-70.136 -1.713,-24.396 -13.561,-41.96 -33.77,-54.705 C 474.455,129.392 451.158,122.353 428.707,113.391 401.674,102.6 377.37,89.23 364.254,60.769 354.633,39.89 347.171,18.203 337.869,-2.753 c -2.266,-5.106 -4.433,-10.277 -7.043,-15.206 -18.077,-34.133 -40.452,-46.768 -81.834,-42.922 -20.663,1.92 -41.287,4.893 -61.713,8.588 -34.677,6.272 -64.08,-3.751 -90.769,-25.734 -18.182,-14.976 -36.029,-30.447 -56.374,-42.705 -26.925,-16.223 -53.307,-15.771 -80.047,0.238 -20.642,12.358 -38.656,28.182 -56.934,43.498 -28.914,24.227 -61.36,30.933 -97.593,23.809 -19.497,-3.834 -39.177,-7.04 -58.975,-8.063 -32.546,-1.682 -55.831,6.777 -73.567,38.198 -12.328,21.838 -20.21,45.391 -28.914,68.567 -13.177,35.084 -38.222,56.25 -72.659,68.216 -13.481,4.684 -26.741,10.04 -39.951,15.456 -50.926,20.875 -66.284,48.556 -57.956,103.093 3.136,20.535 6.659,40.997 8.527,61.755 2.532,28.149 -7.186,51.638 -23.928,73.307 -14.416,18.659 -30.256,36.191 -43.172,56.048 -19.44,29.887 -19.185,59.096 0.617,88.78 11.767,17.638 24.95,34.181 38.858,49.983 27.054,30.738 31.929,65.76 24.834,104.512 -4.4,24.035 -9.226,48.181 -7.008,72.973 1.902,21.26 11.911,37.519 29.19,49.604 16.73,11.701 35.692,18.715 54.605,25.776 15.138,5.651 30.147,11.512 44.379,19.286 25.279,13.808 36.822,37.705 46.723,62.854 7.389,18.769 13.829,37.919 23.214,55.87 15.008,28.705 37.31,45.168 69.137,42.874 z"
       style="fill:none;stroke:#891811;stroke-width:5;stroke-linecap:butt;stroke-linejoin:miter;stroke-miterlimit:10;stroke-dasharray:none;stroke-opacity:1"
       transform="matrix(0.35277776,0,0,-0.35277776,211.76413,376.23137)"
       clip-path="url(#clipPath160)" />
    <path
       id="path161"
       d="m 0,0 c 3.89,-4.1 10.337,-4.503 14.543,-0.729 0.02,0.019 0.041,0.037 0.061,0.055 59.781,53.792 119.545,107.603 179.321,161.399 54.427,48.982 108.791,98.035 163.415,146.796 0.68,0.607 2.404,2.949 4.078,6.276 7.988,15.872 3.73,38.835 -8.636,54.414 -14.331,18.054 -40.103,26.89 -57.57,19.914 -2.383,-0.952 -4.138,-1.878 -4.656,-2.346 -49.304,-44.534 -98.722,-88.942 -148.145,-133.344 -40.64,-36.51 -81.539,-72.739 -121.8,-109.662 -7.474,-6.855 -11.336,-5.833 -17.697,0.787 -41.954,43.658 -84.253,86.985 -126.431,130.429 -1.215,1.252 -3.943,4.279 -8.54,6.591 -17.267,8.683 -44.071,-0.534 -59.138,-17.919 -11.53,-13.303 -19.3,-34.98 -12.006,-51.479 1.347,-3.046 2.723,-5.202 3.519,-6.006 20.764,-20.962 41.228,-42.22 61.795,-63.376 C -91.994,94.591 -46.112,47.37 -0.185,0.193 -0.123,0.129 -0.062,0.065 0,0 Z m 56.335,-193.429 c -232.923,-3.847 -430.43,190.499 -430.4,428.255 0.031,233.838 188.862,429.965 429.474,429.982 C 295.026,664.826 486.205,469.726 484.834,232.085 483.467,-5.048 286.659,-196.231 56.335,-193.429 Z"
       style="fill:none;stroke:#891811;stroke-width:5;stroke-linecap:butt;stroke-linejoin:miter;stroke-miterlimit:10;stroke-dasharray:none;stroke-opacity:1"
       transform="matrix(0.35277776,0,0,-0.35277776,192.36488,294.39263)"
       clip-path="url(#clipPath162)" />
  </g>
</svg>
