<?xml version="1.0" encoding="UTF-8" standalone="no"?>
<!-- Created with Inkscape (http://www.inkscape.org/) -->

<svg
   width="1600"
   height="1600"
   viewBox="0 0 423.33334 423.33333"
   version="1.1"
   id="svg1"
   inkscape:version="1.3.2 (091e20e, 2023-11-25, custom)"
   sodipodi:docname="grape.svg"
   inkscape:export-filename="..\Icones_canvi_png\lcompra.png"
   inkscape:export-xdpi="96"
   inkscape:export-ydpi="96"
   xmlns:inkscape="http://www.inkscape.org/namespaces/inkscape"
   xmlns:sodipodi="http://sodipodi.sourceforge.net/DTD/sodipodi-0.dtd"
   xmlns="http://www.w3.org/2000/svg"
   xmlns:svg="http://www.w3.org/2000/svg">
  <sodipodi:namedview
     id="namedview1"
     pagecolor="#ffffff"
     bordercolor="#000000"
     borderopacity="0.25"
     inkscape:showpageshadow="2"
     inkscape:pageopacity="0.0"
     inkscape:pagecheckerboard="0"
     inkscape:deskcolor="#d1d1d1"
     inkscape:document-units="mm"
     inkscape:zoom="0.35055065"
     inkscape:cx="847.23849"
     inkscape:cy="651.83163"
     inkscape:window-width="1920"
     inkscape:window-height="1001"
     inkscape:window-x="-9"
     inkscape:window-y="-9"
     inkscape:window-maximized="1"
     inkscape:current-layer="layer1" />
  <defs
     id="defs1">
    <clipPath
       clipPathUnits="userSpaceOnUse"
       id="clipPath6">
      <path
         d="M 0,1200 H 1200 V 0 H 0 Z"
         transform="translate(-841.07125,-852.41822)"
         id="path6" />
    </clipPath>
    <clipPath
       clipPathUnits="userSpaceOnUse"
       id="clipPath8">
      <path
         d="M 0,1200 H 1200 V 0 H 0 Z"
         transform="translate(-17.016075,-44.605501)"
         id="path8" />
    </clipPath>
    <clipPath
       clipPathUnits="userSpaceOnUse"
       id="clipPath10">
      <path
         d="M 0,1200 H 1200 V 0 H 0 Z"
         transform="translate(-868.5826,-765.70872)"
         id="path10" />
    </clipPath>
    <clipPath
       clipPathUnits="userSpaceOnUse"
       id="clipPath12">
      <path
         d="M 0,1200 H 1200 V 0 H 0 Z"
         transform="translate(-1203.7281)"
         id="path12" />
    </clipPath>
    <clipPath
       clipPathUnits="userSpaceOnUse"
       id="clipPath10-6">
      <path
         d="M 0,1200 H 1200 V 0 H 0 Z"
         transform="translate(-868.5826,-765.70872)"
         id="path10-4" />
    </clipPath>
    <clipPath
       clipPathUnits="userSpaceOnUse"
       id="clipPath14">
      <path
         d="M 0,1200 H 1200 V 0 H 0 Z"
         transform="translate(-991.49245,-22.001626)"
         id="path14" />
    </clipPath>
    <clipPath
       clipPathUnits="userSpaceOnUse"
       id="clipPath16">
      <path
         d="M 0,1200 H 1200 V 0 H 0 Z"
         transform="translate(-772.33074,-714.48362)"
         id="path16" />
    </clipPath>
    <clipPath
       clipPathUnits="userSpaceOnUse"
       id="clipPath18">
      <path
         d="M 0,1200 H 1200 V 0 H 0 Z"
         transform="translate(-971.77952,-888.90692)"
         id="path18" />
    </clipPath>
    <clipPath
       clipPathUnits="userSpaceOnUse"
       id="clipPath20">
      <path
         d="M 0,1200 H 1200 V 0 H 0 Z"
         transform="translate(-880.8877,-733.41972)"
         id="path20" />
    </clipPath>
    <clipPath
       clipPathUnits="userSpaceOnUse"
       id="clipPath22">
      <path
         d="M 0,1200 H 1200 V 0 H 0 Z"
         transform="translate(-724.93779,-806.99302)"
         id="path22" />
    </clipPath>
    <clipPath
       clipPathUnits="userSpaceOnUse"
       id="clipPath24">
      <path
         d="M 0,1200 H 1200 V 0 H 0 Z"
         transform="translate(-869.96852,-599.50081)"
         id="path24" />
    </clipPath>
    <clipPath
       clipPathUnits="userSpaceOnUse"
       id="clipPath26">
      <path
         d="M 0,1200 H 1200 V 0 H 0 Z"
         transform="translate(-599.94909,-644.15282)"
         id="path26" />
    </clipPath>
    <clipPath
       clipPathUnits="userSpaceOnUse"
       id="clipPath28">
      <path
         d="M 0,1200 H 1200 V 0 H 0 Z"
         transform="translate(-621.76854,-604.45811)"
         id="path28" />
    </clipPath>
    <clipPath
       clipPathUnits="userSpaceOnUse"
       id="clipPath30">
      <path
         d="M 0,1200 H 1200 V 0 H 0 Z"
         transform="translate(-650.52002,-337.31813)"
         id="path30" />
    </clipPath>
    <clipPath
       clipPathUnits="userSpaceOnUse"
       id="clipPath32">
      <path
         d="M 0,1200 H 1200 V 0 H 0 Z"
         transform="translate(-378.17911,-599.50081)"
         id="path32" />
    </clipPath>
    <clipPath
       clipPathUnits="userSpaceOnUse"
       id="clipPath34">
      <path
         d="M 0,1200 H 1200 V 0 H 0 Z"
         transform="translate(-607.05819,-336.34118)"
         id="path34" />
    </clipPath>
    <clipPath
       clipPathUnits="userSpaceOnUse"
       id="clipPath36">
      <path
         d="M 0,1200 H 1200 V 0 H 0 Z"
         transform="translate(-521.47854,-142.3554)"
         id="path36" />
    </clipPath>
    <clipPath
       clipPathUnits="userSpaceOnUse"
       id="clipPath38">
      <path
         d="M 0,1200 H 1200 V 0 H 0 Z"
         transform="translate(-663.82704,-976.38152)"
         id="path38" />
    </clipPath>
  </defs>
  <g
     inkscape:label="Capa 1"
     inkscape:groupmode="layer"
     id="layer1">
    <path
       id="path9"
       d="m 0,0 c 0,-119.282 -48.089,-227.333 -125.938,-305.822 -78.689,-79.336 -187.783,-128.469 -308.353,-128.469 -239.853,0 -434.292,194.439 -434.292,434.291 0,239.852 194.439,434.291 434.292,434.291 C -194.439,434.291 0,239.852 0,0 Z"
       style="display:none;fill:none;stroke:#891811;stroke-width:0;stroke-linecap:butt;stroke-linejoin:miter;stroke-miterlimit:10;stroke-dasharray:none;stroke-opacity:1"
       transform="matrix(0.35279157,0,0,-0.34323299,310.84454,152.02677)"
       clip-path="url(#clipPath10)"
       sodipodi:insensitive="true" />
    <path
       id="path17"
       d="m 0,0 c 0,-62.276 -50.484,-112.76 -112.76,-112.76 -62.276,0 -112.761,50.484 -112.761,112.76 0,62.276 50.485,112.76 112.761,112.76 C -50.484,112.76 0,62.276 0,0 Z"
       style="fill:none;stroke:#891811;stroke-width:5;stroke-linecap:butt;stroke-linejoin:miter;stroke-miterlimit:10;stroke-dasharray:none;stroke-opacity:1"
       transform="matrix(0.35277776,0,0,-0.35277776,338.77981,111.05925)"
       clip-path="url(#clipPath18)" />
    <path
       id="path19"
       d="m 0,0 c 15.591,3.511 42.328,11.693 69.286,32.254 21.641,16.505 35.175,34.696 43.005,47.186 53.882,-3.155 98.357,-41.515 108.11,-91.386 8.338,-42.635 -9.938,-87.362 -46.589,-114.083 -37.758,-26.286 -86.964,-28.36 -124.834,-5.375 C 5.753,-105.169 -14.936,-51 0,0 Z"
       style="fill:none;stroke:#891811;stroke-width:5;stroke-linecap:butt;stroke-linejoin:miter;stroke-miterlimit:10;stroke-dasharray:none;stroke-opacity:1"
       transform="matrix(0.35277776,0,0,-0.35277776,306.71519,165.91168)"
       clip-path="url(#clipPath20)" />
    <path
       id="path21"
       d="m 0,0 c 6.354,-11.422 21.546,-35.071 50.802,-52.683 24.85,-14.961 48.405,-18.675 61.15,-19.756 -2.123,-14.164 -3.467,-33.391 -0.525,-55.771 2.139,-16.276 6.009,-30.138 9.932,-41.129 -3.017,-4.842 -32.391,-50.194 -89.551,-54.629 -53.63,-4.16 -88.419,31.058 -92.958,35.814 -4.079,4.396 -39.839,44.263 -29.698,98.14 C -82.52,-45.773 -46.625,-10.064 0,0 Z"
       style="fill:none;stroke:#891811;stroke-width:5;stroke-linecap:butt;stroke-linejoin:miter;stroke-miterlimit:10;stroke-dasharray:none;stroke-opacity:1"
       transform="matrix(0.35277776,0,0,-0.35277776,251.69953,139.95665)"
       clip-path="url(#clipPath22)" />
    <path
       id="path23"
       d="m 0,0 c 11.361,-11.997 30.514,-29.068 58.501,-41.508 16.257,-7.226 31.261,-11.008 43.31,-13.052 1.687,-3.421 27.451,-58.071 -4.888,-110.619 -30.459,-49.493 -85.751,-53.717 -90.828,-54.015 -7.15,-0.178 -56.912,-0.588 -91.676,39.207 -28.425,32.54 -35.898,79.457 -19.624,121.412 14.091,2.968 33.072,8.521 53.644,19.468 C -27.684,-26.401 -10.772,-11.276 0,0 Z"
       style="fill:none;stroke:#891811;stroke-width:5;stroke-linecap:butt;stroke-linejoin:miter;stroke-miterlimit:10;stroke-dasharray:none;stroke-opacity:1"
       transform="matrix(0.35277776,0,0,-0.35277776,302.86315,213.15529)"
       clip-path="url(#clipPath24)" />
    <path
       id="path25"
       d="m 0,0 c -4.423,12.509 -9.752,32.371 -9.417,57.131 0.305,22.513 5.181,40.69 9.417,52.667 -2.809,4.001 -35.172,46.993 -92.397,48.134 -59.585,1.188 -88.84,-44.529 -91.987,-48.809 -26.764,-41.114 -27.039,-92.723 -1.136,-129.764 28.593,-40.888 76.3,-45.741 83.497,-46.355 7.974,11.176 22.092,28.082 44.334,42.78 C -35.025,-9.24 -13.522,-2.897 0,0 Z"
       style="fill:none;stroke:#891811;stroke-width:5;stroke-linecap:butt;stroke-linejoin:miter;stroke-miterlimit:10;stroke-dasharray:none;stroke-opacity:1"
       transform="matrix(0.35277776,0,0,-0.35277776,207.6063,197.40305)"
       clip-path="url(#clipPath26)" />
    <path
       id="path27"
       d="m 0,0 c 6.067,-9.862 19.261,-28.38 42.957,-42.957 23.588,-14.51 45.958,-17.964 57.486,-18.951 -3.37,-14.735 -6.425,-35.692 -4.422,-60.645 1.509,-18.797 5.469,-34.634 9.476,-46.747 -1.689,-2.959 -33.457,-56.398 -96.021,-58.118 -56.547,-1.556 -90.11,40.461 -93.494,44.851 -28.797,38.19 -32.185,89.156 -8.844,128.239 C -62.872,-4.111 -4.713,-0.234 0,0 Z"
       style="fill:none;stroke:#891811;stroke-width:5;stroke-linecap:butt;stroke-linejoin:miter;stroke-miterlimit:10;stroke-dasharray:none;stroke-opacity:1"
       transform="matrix(0.35277776,0,0,-0.35277776,215.30371,211.40646)"
       clip-path="url(#clipPath28)" />
    <path
       id="path29"
       d="m 0,0 c 13.052,2.559 30.948,7.567 50.29,17.97 24.568,13.214 41.078,29.541 50.837,40.867 8.778,-11.153 27.295,-31.566 57.817,-45.32 C 183.548,2.431 205.76,0.263 219.17,0 c 1.587,-7.993 9.725,-53.03 -19.674,-95.611 -27.81,-40.279 -69.428,-49.709 -78.144,-51.483 -6.05,-0.9 -56.646,-7.557 -94.691,29.419 C -3.829,-88.043 -14.214,-42.093 0,0 Z"
       style="fill:none;stroke:#891811;stroke-width:5;stroke-linecap:butt;stroke-linejoin:miter;stroke-miterlimit:10;stroke-dasharray:none;stroke-opacity:1"
       transform="matrix(0.35277776,0,0,-0.35277776,225.4466,305.64751)"
       clip-path="url(#clipPath30)" />
    <path
       id="path31"
       d="m 0,0 c 10.199,-11.246 24.949,-25.263 44.959,-38.243 21.178,-13.738 41.091,-21.671 56.065,-26.367 -2.353,-12.265 -4.187,-27.77 -3.626,-45.658 0.743,-23.675 5.423,-43.311 10.006,-57.492 -1.81,-2.978 -35.427,-56.101 -99.721,-56.232 -64.603,-0.132 -98.455,53.362 -100.2,56.232 -1.421,2.522 -31.103,57.419 0.375,111.827 C -62.141,-4.078 -4.087,-0.2 0,0 Z"
       style="fill:none;stroke:#891811;stroke-width:5;stroke-linecap:butt;stroke-linejoin:miter;stroke-miterlimit:10;stroke-dasharray:none;stroke-opacity:1"
       transform="matrix(0.35277776,0,0,-0.35277776,129.37078,213.15529)"
       clip-path="url(#clipPath32)" />
    <path
       id="path33"
       d="M 0,0 C -12.538,2.089 -30.557,6.577 -50.111,16.971 -73.264,29.277 -88.688,44.61 -97.63,55.014 -106.225,44.64 -120.739,29.645 -142.451,16.971 -165.542,3.492 -187.041,-1.68 -200.685,-3.874 c -15.084,-62.478 20.67,-124.621 76.71,-141.797 48.341,-14.816 103.649,6.319 132.498,52.69 -4.764,9.12 -11.613,25.018 -13.477,45.979 C -6.787,-26.389 -3.01,-9.777 0,0 Z"
       style="fill:none;stroke:#891811;stroke-width:5;stroke-linecap:butt;stroke-linejoin:miter;stroke-miterlimit:10;stroke-dasharray:none;stroke-opacity:1"
       transform="matrix(0.35277776,0,0,-0.35277776,210.11423,305.99215)"
       clip-path="url(#clipPath34)" />
    <path
       id="path35"
       d="m 0,0 c 14.521,0.662 42.752,3.935 72.447,21.444 23.048,13.591 37.668,30.268 45.786,41.15 C 128.819,50.506 148.028,31.843 177.35,18.546 196.042,10.07 213.172,6.345 226.034,4.637 235.867,-66.455 181.057,-128.667 116.495,-130.405 51.421,-132.156 -6.93,-72.023 0,0 Z"
       style="fill:none;stroke:#891811;stroke-width:5;stroke-linecap:butt;stroke-linejoin:miter;stroke-miterlimit:10;stroke-dasharray:none;stroke-opacity:1"
       transform="matrix(0.35277776,0,0,-0.35277776,179.92363,374.42602)"
       clip-path="url(#clipPath36)" />
    <path
       id="path37"
       d="m 0,0 c -10.427,6.91 -23.081,14.281 -37.95,21.074 -16.174,7.389 -31.191,12.368 -44.063,15.786 16.382,9.642 36.226,19.708 59.449,28.499 15.943,6.034 30.981,10.522 44.68,13.889 C 14.744,52.832 7.372,26.416 0,0 Z M 120.482,211.705 C 110.124,203.109 98.862,192.692 87.477,180.209 73.179,164.531 62.011,149.239 53.369,135.728 30.434,134.762 -0.358,131.067 -34.932,119.73 -77.77,105.683 -109.665,85.399 -130.241,69.882 c -3.126,10.947 -23.476,77.946 -93.272,112.811 -64.543,32.242 -125.164,13.924 -137.191,10.018 -1.143,-7.403 -1.981,-19.159 1.309,-32.903 4.812,-20.101 15.785,-33.29 21.484,-39.275 -13.503,-0.721 -27.511,-2.581 -41.867,-5.93 -104.228,-24.311 -164.433,-112.558 -187.33,-151.089 10.808,-14.095 30.823,-36.524 62.533,-54.731 31.355,-18.002 60.478,-24.028 78.024,-26.311 -17.779,-23.058 -45.517,-65.244 -59.887,-124.827 -16.782,-69.583 -6.802,-127.529 0.372,-156.87 12.855,-0.834 28.182,-0.907 45.33,0.869 16.608,1.719 31.172,4.783 43.31,8.096 8.01,10.153 22.636,26.007 45.543,38.529 18.883,10.323 36.355,14.533 48.161,16.403 -24.413,74.504 8.978,155.53 76.358,189.95 62.783,32.071 141.577,16.783 189.561,-37.996 8.9,11.018 24.255,27.041 47.639,39.507 13.341,7.111 25.835,11.22 35.936,13.676 -4.098,10.869 -9.389,29.11 -8.613,52.033 0.619,18.313 4.889,33.085 8.613,42.938 3.981,31.645 15.163,84.789 50.898,138.983 18.772,28.468 39.358,49.703 56.735,64.888 -10.974,14.352 -21.948,28.703 -32.923,43.054 z"
       style="fill:none;stroke:#891811;stroke-width:5;stroke-linecap:butt;stroke-linejoin:miter;stroke-miterlimit:10;stroke-dasharray:none;stroke-opacity:1"
       transform="matrix(0.35277776,0,0,-0.35277776,230.14102,80.200152)"
       clip-path="url(#clipPath38)" />
  </g>
</svg>
