<?xml version="1.0" encoding="UTF-8" standalone="no"?>
<!-- Created with Inkscape (http://www.inkscape.org/) -->

<svg
   width="1600"
   height="1600"
   viewBox="0 0 423.33334 423.33333"
   version="1.1"
   id="svg1"
   inkscape:version="1.3.2 (091e20e, 2023-11-25, custom)"
   sodipodi:docname="productivity.svg"
   inkscape:export-filename="..\Icones_canvi_png\guard.png"
   inkscape:export-xdpi="96"
   inkscape:export-ydpi="96"
   xmlns:inkscape="http://www.inkscape.org/namespaces/inkscape"
   xmlns:sodipodi="http://sodipodi.sourceforge.net/DTD/sodipodi-0.dtd"
   xmlns="http://www.w3.org/2000/svg"
   xmlns:svg="http://www.w3.org/2000/svg">
  <sodipodi:namedview
     id="namedview1"
     pagecolor="#ffffff"
     bordercolor="#000000"
     borderopacity="0.25"
     inkscape:showpageshadow="2"
     inkscape:pageopacity="0.0"
     inkscape:pagecheckerboard="0"
     inkscape:deskcolor="#d1d1d1"
     inkscape:document-units="mm"
     inkscape:zoom="0.35055065"
     inkscape:cx="932.81814"
     inkscape:cy="683.21084"
     inkscape:window-width="1920"
     inkscape:window-height="1001"
     inkscape:window-x="-9"
     inkscape:window-y="-9"
     inkscape:window-maximized="1"
     inkscape:current-layer="layer1" />
  <defs
     id="defs1">
    <clipPath
       clipPathUnits="userSpaceOnUse"
       id="clipPath6">
      <path
         d="M 0,1200 H 1200 V 0 H 0 Z"
         transform="translate(-841.07125,-852.41822)"
         id="path6" />
    </clipPath>
    <clipPath
       clipPathUnits="userSpaceOnUse"
       id="clipPath8">
      <path
         d="M 0,1200 H 1200 V 0 H 0 Z"
         transform="translate(-17.016075,-44.605501)"
         id="path8" />
    </clipPath>
    <clipPath
       clipPathUnits="userSpaceOnUse"
       id="clipPath10">
      <path
         d="M 0,1200 H 1200 V 0 H 0 Z"
         transform="translate(-868.5826,-765.70872)"
         id="path10" />
    </clipPath>
    <clipPath
       clipPathUnits="userSpaceOnUse"
       id="clipPath12">
      <path
         d="M 0,1200 H 1200 V 0 H 0 Z"
         transform="translate(-1203.7281)"
         id="path12" />
    </clipPath>
    <clipPath
       clipPathUnits="userSpaceOnUse"
       id="clipPath10-6">
      <path
         d="M 0,1200 H 1200 V 0 H 0 Z"
         transform="translate(-868.5826,-765.70872)"
         id="path10-4" />
    </clipPath>
    <clipPath
       clipPathUnits="userSpaceOnUse"
       id="clipPath14">
      <path
         d="M 0,1200 H 1200 V 0 H 0 Z"
         transform="translate(-991.49245,-22.001626)"
         id="path14" />
    </clipPath>
    <clipPath
       clipPathUnits="userSpaceOnUse"
       id="clipPath16">
      <path
         d="M 0,1200 H 1200 V 0 H 0 Z"
         transform="translate(-772.33074,-714.48362)"
         id="path16" />
    </clipPath>
    <clipPath
       clipPathUnits="userSpaceOnUse"
       id="clipPath18">
      <path
         d="M 0,1200 H 1200 V 0 H 0 Z"
         transform="translate(-971.77952,-888.90692)"
         id="path18" />
    </clipPath>
    <clipPath
       clipPathUnits="userSpaceOnUse"
       id="clipPath20">
      <path
         d="M 0,1200 H 1200 V 0 H 0 Z"
         transform="translate(-880.8877,-733.41972)"
         id="path20" />
    </clipPath>
    <clipPath
       clipPathUnits="userSpaceOnUse"
       id="clipPath22">
      <path
         d="M 0,1200 H 1200 V 0 H 0 Z"
         transform="translate(-724.93779,-806.99302)"
         id="path22" />
    </clipPath>
    <clipPath
       clipPathUnits="userSpaceOnUse"
       id="clipPath24">
      <path
         d="M 0,1200 H 1200 V 0 H 0 Z"
         transform="translate(-869.96852,-599.50081)"
         id="path24" />
    </clipPath>
    <clipPath
       clipPathUnits="userSpaceOnUse"
       id="clipPath26">
      <path
         d="M 0,1200 H 1200 V 0 H 0 Z"
         transform="translate(-599.94909,-644.15282)"
         id="path26" />
    </clipPath>
    <clipPath
       clipPathUnits="userSpaceOnUse"
       id="clipPath28">
      <path
         d="M 0,1200 H 1200 V 0 H 0 Z"
         transform="translate(-621.76854,-604.45811)"
         id="path28" />
    </clipPath>
    <clipPath
       clipPathUnits="userSpaceOnUse"
       id="clipPath30">
      <path
         d="M 0,1200 H 1200 V 0 H 0 Z"
         transform="translate(-650.52002,-337.31813)"
         id="path30" />
    </clipPath>
    <clipPath
       clipPathUnits="userSpaceOnUse"
       id="clipPath32">
      <path
         d="M 0,1200 H 1200 V 0 H 0 Z"
         transform="translate(-378.17911,-599.50081)"
         id="path32" />
    </clipPath>
    <clipPath
       clipPathUnits="userSpaceOnUse"
       id="clipPath34">
      <path
         d="M 0,1200 H 1200 V 0 H 0 Z"
         transform="translate(-607.05819,-336.34118)"
         id="path34" />
    </clipPath>
    <clipPath
       clipPathUnits="userSpaceOnUse"
       id="clipPath36">
      <path
         d="M 0,1200 H 1200 V 0 H 0 Z"
         transform="translate(-521.47854,-142.3554)"
         id="path36" />
    </clipPath>
    <clipPath
       clipPathUnits="userSpaceOnUse"
       id="clipPath38">
      <path
         d="M 0,1200 H 1200 V 0 H 0 Z"
         transform="translate(-663.82704,-976.38152)"
         id="path38" />
    </clipPath>
    <clipPath
       clipPathUnits="userSpaceOnUse"
       id="clipPath41">
      <path
         d="M 0,1200 H 1200 V 0 H 0 Z"
         transform="translate(-947.76302,-114.07463)"
         id="path41" />
    </clipPath>
    <clipPath
       clipPathUnits="userSpaceOnUse"
       id="clipPath43">
      <path
         d="M 0,1200 H 1200 V 0 H 0 Z"
         transform="translate(-460.76394,-621.53951)"
         id="path43" />
    </clipPath>
    <clipPath
       clipPathUnits="userSpaceOnUse"
       id="clipPath45">
      <path
         d="M 0,1200 H 1200 V 0 H 0 Z"
         transform="translate(-682.08339,-621.53951)"
         id="path45" />
    </clipPath>
    <clipPath
       clipPathUnits="userSpaceOnUse"
       id="clipPath47">
      <path
         d="M 0,1200 H 1200 V 0 H 0 Z"
         transform="translate(-905.5519,-621.53951)"
         id="path47" />
    </clipPath>
    <clipPath
       clipPathUnits="userSpaceOnUse"
       id="clipPath49">
      <path
         d="M 0,1200 H 1200 V 0 H 0 Z"
         transform="translate(-682.08339,-399.63278)"
         id="path49" />
    </clipPath>
    <clipPath
       clipPathUnits="userSpaceOnUse"
       id="clipPath51">
      <path
         d="M 0,1200 H 1200 V 0 H 0 Z"
         transform="translate(-460.76394,-399.63278)"
         id="path51" />
    </clipPath>
    <clipPath
       clipPathUnits="userSpaceOnUse"
       id="clipPath53">
      <path
         d="M 0,1200 H 1200 V 0 H 0 Z"
         transform="translate(-762.36977,-800.46422)"
         id="path53" />
    </clipPath>
    <clipPath
       clipPathUnits="userSpaceOnUse"
       id="clipPath55">
      <path
         d="M 0,1200 H 1200 V 0 H 0 Z"
         transform="translate(-591.42076,-47.776201)"
         id="path55" />
    </clipPath>
    <clipPath
       clipPathUnits="userSpaceOnUse"
       id="clipPath57">
      <path
         d="M 0,1200 H 1200 V 0 H 0 Z"
         transform="translate(-115.092,-1015.4968)"
         id="path57" />
    </clipPath>
    <clipPath
       clipPathUnits="userSpaceOnUse"
       id="clipPath59">
      <path
         d="M 0,1200 H 1200 V 0 H 0 Z"
         transform="translate(-414.50776,-664.70282)"
         id="path59" />
    </clipPath>
    <clipPath
       clipPathUnits="userSpaceOnUse"
       id="clipPath61">
      <path
         d="M 0,1200 H 1200 V 0 H 0 Z"
         transform="translate(-908.88452,-600.11752)"
         id="path61" />
    </clipPath>
    <clipPath
       clipPathUnits="userSpaceOnUse"
       id="clipPath63">
      <path
         d="M 0,1200 H 1200 V 0 H 0 Z"
         transform="translate(-1190.1308,-783.79972)"
         id="path63" />
    </clipPath>
    <clipPath
       clipPathUnits="userSpaceOnUse"
       id="clipPath65">
      <path
         d="M 0,1200 H 1200 V 0 H 0 Z"
         transform="translate(-1140.3638,-976.03752)"
         id="path65" />
    </clipPath>
    <clipPath
       clipPathUnits="userSpaceOnUse"
       id="clipPath67">
      <path
         d="M 0,1200 H 1200 V 0 H 0 Z"
         transform="translate(-1140.3863,-593.49091)"
         id="path67" />
    </clipPath>
    <clipPath
       clipPathUnits="userSpaceOnUse"
       id="clipPath69">
      <path
         d="M 0,1200 H 1200 V 0 H 0 Z"
         transform="translate(-401.70376,-1141.4133)"
         id="path69" />
    </clipPath>
    <clipPath
       clipPathUnits="userSpaceOnUse"
       id="clipPath71">
      <path
         d="M 0,1200 H 1200 V 0 H 0 Z"
         transform="translate(-783.24752,-1141.4102)"
         id="path71" />
    </clipPath>
    <clipPath
       clipPathUnits="userSpaceOnUse"
       id="clipPath73">
      <path
         d="M 0,1200 H 1200 V 0 H 0 Z"
         transform="translate(-592.35301,-1141.3953)"
         id="path73" />
    </clipPath>
    <clipPath
       clipPathUnits="userSpaceOnUse"
       id="clipPath75">
      <path
         d="M 0,1200 H 1200 V 0 H 0 Z"
         transform="translate(-974.20127,-1141.3992)"
         id="path75" />
    </clipPath>
    <clipPath
       clipPathUnits="userSpaceOnUse"
       id="clipPath77">
      <path
         d="M 0,1200 H 1200 V 0 H 0 Z"
         transform="translate(-1148.004,-1190.828)"
         id="path77" />
    </clipPath>
    <clipPath
       clipPathUnits="userSpaceOnUse"
       id="clipPath79">
      <path
         d="M 0,1200 H 1200 V 0 H 0 Z"
         transform="translate(-228.42826,-1141.4955)"
         id="path79" />
    </clipPath>
    <clipPath
       clipPathUnits="userSpaceOnUse"
       id="clipPath81">
      <path
         d="M 0,1200 H 1200 V 0 H 0 Z"
         transform="translate(-1140.3938,-402.90924)"
         id="path81" />
    </clipPath>
    <clipPath
       clipPathUnits="userSpaceOnUse"
       id="clipPath83">
      <path
         d="M 0,1200 H 1200 V 0 H 0 Z"
         transform="translate(-1140.3938,-202.82341)"
         id="path83" />
    </clipPath>
    <clipPath
       clipPathUnits="userSpaceOnUse"
       id="clipPath85">
      <path
         d="M 0,1200 H 1200 V 0 H 0 Z"
         transform="translate(-564.12676,-1083.5258)"
         id="path85" />
    </clipPath>
    <clipPath
       clipPathUnits="userSpaceOnUse"
       id="clipPath87">
      <path
         d="M 0,1200 H 1200 V 0 H 0 Z"
         transform="translate(-600.48902,-416.01984)"
         id="path87" />
    </clipPath>
    <clipPath
       clipPathUnits="userSpaceOnUse"
       id="clipPath89">
      <path
         d="M 0,1200 H 1200 V 0 H 0 Z"
         transform="translate(-193.2525,-204.77288)"
         id="path89" />
    </clipPath>
    <clipPath
       clipPathUnits="userSpaceOnUse"
       id="clipPath93">
      <path
         d="M 0,1200 H 1200 V 0 H 0 Z"
         transform="translate(-346.49851,-962.06963)"
         id="path93" />
    </clipPath>
    <clipPath
       clipPathUnits="userSpaceOnUse"
       id="clipPath96">
      <path
         d="M 0,1200 H 1200 V 0 H 0 Z"
         transform="translate(-750.60902,-373.95481)"
         id="path96" />
    </clipPath>
    <clipPath
       clipPathUnits="userSpaceOnUse"
       id="clipPath98">
      <path
         d="M 0,1200 H 1200 V 0 H 0 Z"
         transform="translate(-598.64851,-36.834601)"
         id="path98" />
    </clipPath>
    <clipPath
       clipPathUnits="userSpaceOnUse"
       id="clipPath100">
      <path
         d="M 0,1200 H 1200 V 0 H 0 Z"
         transform="translate(-1087.407,-871.32682)"
         id="path100" />
    </clipPath>
    <clipPath
       clipPathUnits="userSpaceOnUse"
       id="clipPath100-1">
      <path
         d="M 0,1200 H 1200 V 0 H 0 Z"
         transform="translate(-1087.407,-871.32682)"
         id="path100-8" />
    </clipPath>
    <clipPath
       clipPathUnits="userSpaceOnUse"
       id="clipPath102">
      <path
         d="M 0,1200 H 1200 V 0 H 0 Z"
         transform="translate(-689.50877,-231.37958)"
         id="path102" />
    </clipPath>
    <clipPath
       clipPathUnits="userSpaceOnUse"
       id="clipPath104">
      <path
         d="M 0,1200 H 1200 V 0 H 0 Z"
         transform="translate(-437.74201,-210.74378)"
         id="path104" />
    </clipPath>
    <clipPath
       clipPathUnits="userSpaceOnUse"
       id="clipPath106">
      <path
         d="M 0,1200 H 1200 V 0 H 0 Z"
         transform="translate(-902.68802,-501.15431)"
         id="path106" />
    </clipPath>
    <clipPath
       clipPathUnits="userSpaceOnUse"
       id="clipPath108">
      <path
         d="M 0,1200 H 1200 V 0 H 0 Z"
         transform="translate(-844.87577,-316.07303)"
         id="path108" />
    </clipPath>
    <clipPath
       clipPathUnits="userSpaceOnUse"
       id="clipPath110">
      <path
         d="M 0,1200 H 1200 V 0 H 0 Z"
         transform="translate(-769.75127,-160.0926)"
         id="path110" />
    </clipPath>
    <clipPath
       clipPathUnits="userSpaceOnUse"
       id="clipPath112">
      <path
         d="M 0,1200 H 1200 V 0 H 0 Z"
         transform="translate(-1003.9725,-391.29233)"
         id="path112" />
    </clipPath>
    <clipPath
       clipPathUnits="userSpaceOnUse"
       id="clipPath114">
      <path
         d="M 0,1200 H 1200 V 0 H 0 Z"
         transform="translate(-540.73651,-249.79741)"
         id="path114" />
    </clipPath>
    <clipPath
       clipPathUnits="userSpaceOnUse"
       id="clipPath116">
      <path
         d="M 0,1200 H 1200 V 0 H 0 Z"
         transform="translate(-576.31876,-130.8762)"
         id="path116" />
    </clipPath>
    <clipPath
       clipPathUnits="userSpaceOnUse"
       id="clipPath118">
      <path
         d="M 0,1200 H 1200 V 0 H 0 Z"
         transform="translate(-748.55477,-341.36768)"
         id="path118" />
    </clipPath>
    <clipPath
       clipPathUnits="userSpaceOnUse"
       id="clipPath120">
      <path
         d="M 0,1200 H 1200 V 0 H 0 Z"
         transform="translate(-983.18102,-280.09223)"
         id="path120" />
    </clipPath>
    <clipPath
       clipPathUnits="userSpaceOnUse"
       id="clipPath122">
      <path
         d="M 0,1200 H 1200 V 0 H 0 Z"
         transform="translate(-1001.4405,-521.35171)"
         id="path122" />
    </clipPath>
    <clipPath
       clipPathUnits="userSpaceOnUse"
       id="clipPath124">
      <path
         d="M 0,1200 H 1200 V 0 H 0 Z"
         transform="translate(-305.01451,-349.51118)"
         id="path124" />
    </clipPath>
    <clipPath
       clipPathUnits="userSpaceOnUse"
       id="clipPath126">
      <path
         d="M 0,1200 H 1200 V 0 H 0 Z"
         transform="translate(-646.41377,-341.38568)"
         id="path126" />
    </clipPath>
    <clipPath
       clipPathUnits="userSpaceOnUse"
       id="clipPath128">
      <path
         d="M 0,1200 H 1200 V 0 H 0 Z"
         transform="translate(-783.73577,-457.29761)"
         id="path128" />
    </clipPath>
    <clipPath
       clipPathUnits="userSpaceOnUse"
       id="clipPath130">
      <path
         d="M 0,1200 H 1200 V 0 H 0 Z"
         transform="translate(-346.74751,-479.42721)"
         id="path130" />
    </clipPath>
    <clipPath
       clipPathUnits="userSpaceOnUse"
       id="clipPath132">
      <path
         d="M 0,1200 H 1200 V 0 H 0 Z"
         transform="translate(-210.45376,-457.26041)"
         id="path132" />
    </clipPath>
    <clipPath
       clipPathUnits="userSpaceOnUse"
       id="clipPath134">
      <path
         d="M 0,1200 H 1200 V 0 H 0 Z"
         transform="translate(-169.1985,-336.80911)"
         id="path134" />
    </clipPath>
    <clipPath
       clipPathUnits="userSpaceOnUse"
       id="clipPath136">
      <path
         d="M 0,1200 H 1200 V 0 H 0 Z"
         transform="translate(-458.40601,-369.17821)"
         id="path136" />
    </clipPath>
    <clipPath
       clipPathUnits="userSpaceOnUse"
       id="clipPath138">
      <path
         d="M 0,1200 H 1200 V 0 H 0 Z"
         transform="translate(-325.70026,-250.92721)"
         id="path138" />
    </clipPath>
    <clipPath
       clipPathUnits="userSpaceOnUse"
       id="clipPath140">
      <path
         d="M 0,1200 H 1200 V 0 H 0 Z"
         transform="translate(-270.81076,-722.77152)"
         id="path140" />
    </clipPath>
    <clipPath
       clipPathUnits="userSpaceOnUse"
       id="clipPath142">
      <path
         d="M 0,1200 H 1200 V 0 H 0 Z"
         transform="translate(-781.76252,-679.53052)"
         id="path142" />
    </clipPath>
    <clipPath
       clipPathUnits="userSpaceOnUse"
       id="clipPath144">
      <path
         d="M 0,1200 H 1200 V 0 H 0 Z"
         transform="translate(-856.78427,-737.98352)"
         id="path144" />
    </clipPath>
    <clipPath
       clipPathUnits="userSpaceOnUse"
       id="clipPath146">
      <path
         d="M 0,1200 H 1200 V 0 H 0 Z"
         transform="translate(-1029.519,-790.82362)"
         id="path146" />
    </clipPath>
    <clipPath
       clipPathUnits="userSpaceOnUse"
       id="clipPath148">
      <path
         d="M 0,1200 H 1200 V 0 H 0 Z"
         transform="translate(-345.07351,-700.96822)"
         id="path148" />
    </clipPath>
    <clipPath
       clipPathUnits="userSpaceOnUse"
       id="clipPath150">
      <path
         d="M 0,1200 H 1200 V 0 H 0 Z"
         transform="translate(-516.44251,-648.09581)"
         id="path150" />
    </clipPath>
    <clipPath
       clipPathUnits="userSpaceOnUse"
       id="clipPath152">
      <path
         d="M 0,1200 H 1200 V 0 H 0 Z"
         transform="translate(-271.46776,-595.79471)"
         id="path152" />
    </clipPath>
    <clipPath
       clipPathUnits="userSpaceOnUse"
       id="clipPath154">
      <path
         d="M 0,1200 H 1200 V 0 H 0 Z"
         transform="translate(-347.13676,-567.43012)"
         id="path154" />
    </clipPath>
    <clipPath
       clipPathUnits="userSpaceOnUse"
       id="clipPath156">
      <path
         d="M 0,1200 H 1200 V 0 H 0 Z"
         transform="translate(-0.01425,-1029.5887)"
         id="path156" />
    </clipPath>
    <clipPath
       clipPathUnits="userSpaceOnUse"
       id="clipPath158">
      <path
         d="M 0,1200 H 1200 V 0 H 0 Z"
         transform="translate(-756.59552,-230.31211)"
         id="path158" />
    </clipPath>
    <clipPath
       clipPathUnits="userSpaceOnUse"
       id="clipPath160">
      <path
         d="M 0,1200 H 1200 V 0 H 0 Z"
         transform="translate(-599.44201,-132.70163)"
         id="path160" />
    </clipPath>
    <clipPath
       clipPathUnits="userSpaceOnUse"
       id="clipPath162">
      <path
         d="M 0,1200 H 1200 V 0 H 0 Z"
         transform="translate(-544.45201,-364.68548)"
         id="path162" />
    </clipPath>
    <clipPath
       clipPathUnits="userSpaceOnUse"
       id="clipPath164">
      <path
         d="M 0,1200 H 1200 V 0 H 0 Z"
         transform="translate(-1030.2045,-250.85678)"
         id="path164" />
    </clipPath>
    <clipPath
       clipPathUnits="userSpaceOnUse"
       id="clipPath166">
      <path
         d="M 0,1200 H 1200 V 0 H 0 Z"
         transform="translate(-954.82502,-390.25088)"
         id="path166" />
    </clipPath>
    <clipPath
       clipPathUnits="userSpaceOnUse"
       id="clipPath168">
      <path
         d="M 0,1200 H 1200 V 0 H 0 Z"
         transform="translate(-419.02651,-787.84392)"
         id="path168" />
    </clipPath>
  </defs>
  <g
     inkscape:label="Capa 1"
     inkscape:groupmode="layer"
     id="layer1">
    <path
       id="path9"
       d="m 0,0 c 0,-119.282 -48.089,-227.333 -125.938,-305.822 -78.689,-79.336 -187.783,-128.469 -308.353,-128.469 -239.853,0 -434.292,194.439 -434.292,434.291 0,239.852 194.439,434.291 434.292,434.291 C -194.439,434.291 0,239.852 0,0 Z"
       style="display:none;fill:none;stroke:#891811;stroke-width:0;stroke-linecap:butt;stroke-linejoin:miter;stroke-miterlimit:10;stroke-dasharray:none;stroke-opacity:1"
       transform="matrix(0.35279157,0,0,-0.34323299,310.84454,152.02677)"
       clip-path="url(#clipPath10)"
       sodipodi:insensitive="true" />
    <path
       id="path169"
       d="M 9.0479262,40.795115 V 404.22323"
       style="fill:none;stroke:#891811;stroke-width:1.76389;stroke-linecap:butt;stroke-linejoin:miter;stroke-miterlimit:10;stroke-dasharray:none;stroke-opacity:1" />
    <path
       id="path170"
       d="m 3.7562562,44.571995 v 2.59221 l 5.2899,-5.69242 5.9224398,6.37117 1.29187,-1.20298 -7.2143098,-7.75793 z"
       style="fill:#891811;fill-opacity:1;fill-rule:nonzero;stroke:none;stroke-width:0.352778" />
    <path
       id="path171"
       d="M 419.88499,402.44864 H 11.347876 l 89.807344,-114.43052 72.35542,13.58759 68.03319,-97.79176 63.34831,-41.78618 69.94736,-91.643535"
       style="fill:none;stroke:#891811;stroke-width:1.76389;stroke-linecap:butt;stroke-linejoin:miter;stroke-miterlimit:10;stroke-dasharray:none;stroke-opacity:1" />
    <path
       id="path172"
       d="m 414.04034,395.23457 -1.20332,1.29187 6.37081,5.92032 -6.37081,5.92208 1.20332,1.29222 7.75758,-7.2143 z"
       style="fill:#891811;fill-opacity:1;fill-rule:nonzero;stroke:none;stroke-width:0.352778" />
  </g>
</svg>
