<?xml version="1.0" encoding="UTF-8" standalone="no"?>
<!-- Created with Inkscape (http://www.inkscape.org/) -->

<svg
   width="1600"
   height="1600"
   viewBox="0 0 423.33334 423.33333"
   version="1.1"
   id="svg1"
   inkscape:version="1.3.2 (091e20e, 2023-11-25, custom)"
   sodipodi:docname="compra.svg"
   inkscape:export-filename="..\Icones_canvi_png\lsearch.png"
   inkscape:export-xdpi="96"
   inkscape:export-ydpi="96"
   xmlns:inkscape="http://www.inkscape.org/namespaces/inkscape"
   xmlns:sodipodi="http://sodipodi.sourceforge.net/DTD/sodipodi-0.dtd"
   xmlns="http://www.w3.org/2000/svg"
   xmlns:svg="http://www.w3.org/2000/svg">
  <sodipodi:namedview
     id="namedview1"
     pagecolor="#ffffff"
     bordercolor="#000000"
     borderopacity="0.25"
     inkscape:showpageshadow="2"
     inkscape:pageopacity="0.0"
     inkscape:pagecheckerboard="0"
     inkscape:deskcolor="#d1d1d1"
     inkscape:document-units="mm"
     inkscape:zoom="0.35055065"
     inkscape:cx="847.23849"
     inkscape:cy="651.83163"
     inkscape:window-width="1920"
     inkscape:window-height="1001"
     inkscape:window-x="-9"
     inkscape:window-y="-9"
     inkscape:window-maximized="1"
     inkscape:current-layer="layer1" />
  <defs
     id="defs1">
    <clipPath
       clipPathUnits="userSpaceOnUse"
       id="clipPath6">
      <path
         d="M 0,1200 H 1200 V 0 H 0 Z"
         transform="translate(-841.07125,-852.41822)"
         id="path6" />
    </clipPath>
    <clipPath
       clipPathUnits="userSpaceOnUse"
       id="clipPath8">
      <path
         d="M 0,1200 H 1200 V 0 H 0 Z"
         transform="translate(-17.016075,-44.605501)"
         id="path8" />
    </clipPath>
    <clipPath
       clipPathUnits="userSpaceOnUse"
       id="clipPath10">
      <path
         d="M 0,1200 H 1200 V 0 H 0 Z"
         transform="translate(-868.5826,-765.70872)"
         id="path10" />
    </clipPath>
    <clipPath
       clipPathUnits="userSpaceOnUse"
       id="clipPath12">
      <path
         d="M 0,1200 H 1200 V 0 H 0 Z"
         transform="translate(-1203.7281)"
         id="path12" />
    </clipPath>
    <clipPath
       clipPathUnits="userSpaceOnUse"
       id="clipPath10-6">
      <path
         d="M 0,1200 H 1200 V 0 H 0 Z"
         transform="translate(-868.5826,-765.70872)"
         id="path10-4" />
    </clipPath>
    <clipPath
       clipPathUnits="userSpaceOnUse"
       id="clipPath14">
      <path
         d="M 0,1200 H 1200 V 0 H 0 Z"
         transform="translate(-991.49245,-22.001626)"
         id="path14" />
    </clipPath>
    <clipPath
       clipPathUnits="userSpaceOnUse"
       id="clipPath16">
      <path
         d="M 0,1200 H 1200 V 0 H 0 Z"
         transform="translate(-772.33074,-714.48362)"
         id="path16" />
    </clipPath>
  </defs>
  <g
     inkscape:label="Capa 1"
     inkscape:groupmode="layer"
     id="layer1">
    <path
       id="path9"
       d="m 0,0 c 0,-119.282 -48.089,-227.333 -125.938,-305.822 -78.689,-79.336 -187.783,-128.469 -308.353,-128.469 -239.853,0 -434.292,194.439 -434.292,434.291 0,239.852 194.439,434.291 434.292,434.291 C -194.439,434.291 0,239.852 0,0 Z"
       style="display:none;fill:none;stroke:#891811;stroke-width:0;stroke-linecap:butt;stroke-linejoin:miter;stroke-miterlimit:10;stroke-dasharray:none;stroke-opacity:1"
       transform="matrix(0.35279157,0,0,-0.34323299,310.84454,152.02677)"
       clip-path="url(#clipPath10)"
       sodipodi:insensitive="true" />
    <path
       id="path13"
       d="m 0,0 h -782.985 c -40.627,0 -73.563,32.935 -73.563,73.563 v 782.985 c 0,40.627 32.936,73.562 73.563,73.562 H 0 c 40.628,0 73.563,-32.935 73.563,-73.562 V 73.563 C 73.563,32.935 40.628,0 0,0 Z"
       style="fill:none;stroke:#891811;stroke-width:5;stroke-linecap:butt;stroke-linejoin:miter;stroke-miterlimit:10;stroke-dasharray:none;stroke-opacity:1"
       transform="matrix(0.35277776,0,0,-0.35277776,346.31616,415.31745)"
       clip-path="url(#clipPath14)" />
    <path
       id="path15"
       d="M 0,0 C -28.522,269.333 50.515,463.515 -166.387,463.515 -407.057,463.515 -309.78,271.733 -344.661,0"
       style="fill:none;stroke:#891811;stroke-width:5;stroke-linecap:butt;stroke-linejoin:miter;stroke-miterlimit:10;stroke-dasharray:none;stroke-opacity:1"
       transform="matrix(0.35277776,0,0,-0.35277776,269.00079,171.0252)"
       clip-path="url(#clipPath16)" />
  </g>
</svg>
