<?xml version="1.0" encoding="UTF-8" standalone="no"?>
<!-- Created with Inkscape (http://www.inkscape.org/) -->

<svg
   version="1.1"
   id="svg1"
   width="327.20001"
   height="293.60001"
   viewBox="0 0 327.20001 293.60001"
   sodipodi:docname="weitgh.svg"
   inkscape:export-filename="..\Icones_canvi_png\weitgh_2.png"
   inkscape:export-xdpi="96"
   inkscape:export-ydpi="96"
   xmlns:inkscape="http://www.inkscape.org/namespaces/inkscape"
   xmlns:sodipodi="http://sodipodi.sourceforge.net/DTD/sodipodi-0.dtd"
   xmlns="http://www.w3.org/2000/svg"
   xmlns:svg="http://www.w3.org/2000/svg">
  <defs
     id="defs1">
    <linearGradient
       id="swatch2"
       inkscape:swatch="solid">
      <stop
         style="stop-color:#000000;stop-opacity:1;"
         offset="0"
         id="stop2" />
    </linearGradient>
    <marker
       style="overflow:visible"
       id="Triangle"
       refX="0"
       refY="0"
       orient="auto-start-reverse"
       inkscape:stockid="Triangle arrow"
       markerWidth="1"
       markerHeight="1"
       viewBox="0 0 1 1"
       inkscape:isstock="true"
       inkscape:collect="always"
       preserveAspectRatio="xMidYMid">
      <path
         transform="scale(0.5)"
         style="fill:context-stroke;fill-rule:evenodd;stroke:context-stroke;stroke-width:1pt"
         d="M 5.77,0 -2.88,5 V -5 Z"
         id="path135" />
    </marker>
  </defs>
  <sodipodi:namedview
     id="namedview1"
     pagecolor="#ffffff"
     bordercolor="#000000"
     borderopacity="0.25"
     inkscape:showpageshadow="2"
     inkscape:pageopacity="0.0"
     inkscape:pagecheckerboard="0"
     inkscape:deskcolor="#d1d1d1" />
  <g
     inkscape:groupmode="layer"
     inkscape:label="Image"
     id="g1">
    <path
       id="path1"
       style="opacity:1;fill:#891111;stroke-width:0;stroke-dasharray:none;marker-start:url(#Triangle)"
       sodipodi:type="inkscape:offset"
       inkscape:radius="-0.96025759"
       inkscape:original="M 165.14844 0.14648438 C 150.53272 -0.20853598 135.22697 7.2262782 126.16992 19.564453 C 115.79202 33.701991 114.6659 50.080547 122.73242 69.576172 C 123.42719 71.255304 121.32766 71.449567 98.826172 71.794922 C 74.487294 72.168477 74.075795 72.215854 67.923828 75.228516 C 57.642923 80.263155 50.126408 90.116131 47.175781 102.42969 C 46.651461 104.61776 38.355998 137.23729 28.742188 174.91602 C 12.834388 237.26235 11.2291 244.43455 10.875 254.66797 C 10.527277 264.71713 10.770419 266.53622 13.175781 271.79297 C 17.56651 281.38859 26.936426 289.54825 37.142578 292.66406 C 38.661881 293.12791 95.482097 293.55132 163.41016 293.60352 C 282.74352 293.69532 287.12088 293.62602 292.98633 291.56445 C 307.89965 286.32284 317.79809 271.83354 317.79883 255.24609 C 317.79906 249.82942 279.53257 96.602137 276.91797 91.550781 C 274.22432 86.3467 265.42327 77.988881 259.23828 74.761719 C 254.5206 72.300144 252.9775 72.148477 229.12695 71.794922 C 215.30128 71.589974 203.99023 71.254519 203.99023 71.050781 C 203.99023 70.847044 204.97976 68.372856 206.18945 65.550781 C 218.10197 37.759989 201.17819 6.2992735 171.34961 0.78515625 C 169.31005 0.4081236 167.2364 0.19720156 165.14844 0.14648438 z M 161.73242 4.4394531 C 175.49026 3.7646218 182.71866 6.3710826 192.52344 15.542969 C 207.02479 29.108277 210.70222 48.235526 202.19141 65.84375 C 200.63805 69.057567 199.64544 72.41443 199.98633 73.302734 C 200.50322 74.64978 204.52002 74.917969 224.19531 74.917969 C 250.70491 74.917969 255.89781 75.829577 263.88477 81.888672 C 274.09736 89.636165 273.68368 88.423211 294.68164 172.32617 C 316.22112 258.39289 316.52504 260.23531 310.92188 271.09961 C 307.34141 278.04202 302.30402 283.08369 295.14844 286.89062 L 289.62305 289.83008 L 165.31641 290.06836 C 65.555836 290.2589 40.219769 290.0214 37.011719 288.86719 C 27.506881 285.44753 19.785311 278.42153 15.914062 269.66992 C 14.192252 265.7775 13.865422 262.93678 14.1875 254.69727 C 14.529617 245.9451 17.01872 234.98334 32.058594 176.02148 C 41.669612 138.34275 49.96298 105.72325 50.488281 103.53516 C 53.325955 91.715116 59.257753 83.908947 69.5 78.509766 C 75.245067 75.481268 75.348473 75.470003 101.21094 75.119141 C 117.45414 74.898778 127.42261 74.339998 127.86328 73.626953 C 128.25047 73.00047 127.01554 69.429224 125.11914 65.691406 C 121.87933 59.305654 121.67187 58.16285 121.67188 46.742188 C 121.67186 35.70854 121.95271 34.014748 124.7207 28.380859 C 128.64726 20.388919 137.22093 11.854719 145.20508 7.9902344 C 150.27968 5.5340217 153.49314 4.8435937 161.73242 4.4394531 z M 164.05664 18.566406 C 153.53488 18.566406 142.37089 26.075199 137.77734 36.244141 C 131.71987 49.653818 138.66033 66.064304 153.16211 72.621094 C 170.7717 80.583041 191.83594 66.488204 191.83594 46.742188 C 191.83594 31.721165 178.86598 18.566406 164.05664 18.566406 z M 163.42969 22.259766 C 165.02672 22.139377 166.50587 22.199306 167.75391 22.46875 C 176.60268 24.379149 182.48902 29.122668 186.21875 37.349609 C 189.18687 43.896573 189.08586 49.918193 185.89453 56.685547 C 182.78985 63.269168 179.73324 66.271247 173.05078 69.300781 C 166.26632 72.376568 160.32424 72.203148 153.34766 68.726562 C 144.68075 64.407662 138.79883 55.396383 138.79883 46.441406 C 138.79883 40.458765 143.74291 31.154719 148.91211 27.410156 C 152.78476 24.604838 158.63858 22.62093 163.42969 22.259766 z M 164.13672 89.289062 C 77.708093 89.282363 77.074194 89.324452 71.210938 95.609375 C 66.885728 100.24565 66.479799 101.38885 59.923828 127.46875 C 56.572134 140.80195 48.086276 174.56614 41.066406 202.5 C 34.046539 230.43385 28.310313 255.04694 28.320312 257.19531 C 28.341573 261.76309 32.097959 268.8607 36.039062 271.78125 C 37.559283 272.90781 41.039606 274.26751 43.773438 274.80273 C 46.507266 275.33795 100.95291 275.80961 164.76367 275.84961 C 295.09631 275.93131 288.29277 276.33899 294.96484 268.01758 C 301.17807 260.26849 301.22657 260.56354 280.42578 177.59766 C 270.12993 136.53177 260.90903 101.39226 259.93555 99.509766 C 257.74844 95.280341 253.43084 92.12491 247.63477 90.519531 C 244.59208 89.676773 218.57699 89.293064 164.13672 89.289062 z M 112.36719 93.845703 C 125.24042 93.801233 142.50954 93.877233 165.79297 93.958984 L 250.2207 94.253906 L 253.17383 97.017578 C 254.79769 98.536884 256.63198 100.71817 257.25 101.86523 C 259.07796 105.25803 295.70117 252.8131 295.70117 256.78516 C 295.70117 261.87102 291.92906 267.70765 287.08789 270.11523 C 283.19339 272.05205 277.28275 272.15942 166.42188 272.31641 C 102.30725 272.40721 47.657912 272.04701 44.978516 271.51562 C 37.765898 270.08519 31.617188 263.36366 31.617188 256.9082 C 31.617188 255.4529 39.379699 223.48038 48.865234 185.85938 C 58.350768 148.23835 66.819115 114.4547 67.685547 110.7832 C 68.551978 107.11169 70.248978 102.48258 71.457031 100.49609 C 74.686095 95.186329 73.747496 93.979118 112.36719 93.845703 z M 100.38867 137.89844 C 98.074125 137.81134 95.738835 138.88792 93.236328 141.12305 L 89.626953 144.3457 L 89.306641 180.56445 C 88.964619 219.21663 89.184944 221.16906 94.345703 225.22852 C 97.611775 227.79761 101.29618 227.99499 105.49023 225.82617 C 109.59332 223.70439 111.17383 219.77746 111.17383 211.71289 L 111.17383 204.96875 L 122.0293 215.50195 C 129.28275 222.54036 134.04095 226.28943 136.36914 226.80078 C 149.25079 229.63008 154.62178 214.5951 143.90234 205.71484 C 142.00606 204.14394 135.55801 198.0712 129.57227 192.21875 L 118.68945 181.57812 L 133.16602 167.75 C 148.75269 152.86174 149.54489 151.4233 145.96875 144.50781 C 143.9154 140.5371 141.20495 139.00586 136.23438 139.00586 C 133.00888 139.00586 130.78513 140.46632 121.79883 148.48242 L 111.17383 157.95898 L 111.17383 151.68555 C 111.17383 146.02547 110.80804 145.04632 107.41797 141.65625 C 104.99751 139.2358 102.70322 137.98557 100.38867 137.89844 z M 197.93359 138.49805 C 187.77351 138.54015 186.2569 138.83748 179.49023 142.10547 C 155.63934 153.62441 146.52862 181.21889 158.9082 204.44531 C 164.29975 214.56094 175.71292 223.38579 187.13477 226.27148 C 194.68816 228.17982 208.36953 226.90134 215.25391 223.64453 C 228.88186 217.19746 238.24414 200.8979 238.24414 183.61523 C 238.24414 179.55898 237.63238 178.00152 235.01367 175.38281 L 231.7832 172.1543 L 217.25 172.1543 L 202.71484 172.1543 L 199.48438 175.38281 C 195.02666 179.84053 195.02666 185.46028 199.48438 189.91797 C 202.20595 192.63956 203.59725 193.14648 208.32422 193.14648 C 211.40958 193.14648 213.93169 193.52077 213.92969 193.97656 C 213.91869 196.17938 209.24679 202.0674 206.30273 203.58984 C 202.17384 205.72497 194.39054 205.79505 189.47266 203.74023 C 178.20263 199.03131 171.96127 184.11041 177.04492 174.03125 C 183.48426 161.26416 195.84669 156.91448 209.06836 162.76172 C 217.04323 166.28859 219.7465 166.23703 223.86523 162.48438 C 231.33741 155.67631 228.60039 148.09732 216.52539 142.1543 C 209.48071 138.68706 208.30428 138.45475 197.93359 138.49805 z M 100.67188 141.3457 C 102.14642 141.50477 103.57867 142.35991 105.14648 143.92773 C 107.50486 146.2861 107.85937 147.64 107.85938 154.30664 C 107.85936 159.88945 108.28388 162.13437 109.41992 162.57031 C 110.3662 162.93343 115.4561 159.06772 122.35938 152.74414 C 135.00431 141.16106 137.94811 140.03714 142.0332 145.23047 C 146.3736 150.74837 145.47155 152.1313 126.26367 169.42969 C 120.8893 174.26981 115.99378 179.15694 115.38477 180.28906 C 114.43652 182.05181 116.59669 184.59167 130.41992 197.96875 C 147.81316 214.80058 148.75253 216.44082 143.82031 221.37305 C 139.05936 226.13401 137.8083 225.48633 121.51953 209.82227 L 108.41211 197.2168 L 107.85938 208.54297 C 107.36071 218.76561 107.05364 220.07566 104.69922 221.97852 C 101.53412 224.53662 99.197149 224.63881 95.951172 222.36523 L 93.494141 220.64648 L 93.494141 182.65039 L 93.494141 144.6543 L 95.951172 142.93555 C 97.681568 141.72352 99.197315 141.18663 100.67188 141.3457 z M 197.05664 141.50195 C 203.46934 141.34556 209.95137 142.71474 215.94336 145.70898 C 223.78326 149.62664 225.81629 152.97304 223.30664 157.82617 C 220.94579 162.39156 217.76108 162.80104 210.29688 159.5 C 195.79323 153.0858 181.4308 157.78348 174.6543 171.15625 C 165.91471 188.403 178.56667 208.61719 198.10156 208.61719 C 205.13702 208.61719 209.02784 206.85594 213.67383 201.56445 C 220.61557 193.65824 219.39472 189.83203 209.93164 189.83203 C 203.17378 189.83203 199.57031 187.33456 199.57031 182.65039 C 199.57031 181.13109 200.56385 178.89317 201.7793 177.67773 C 203.74284 175.71419 205.46394 175.46875 217.20703 175.46875 C 229.38001 175.46875 230.60069 175.65939 232.67578 177.88672 C 235.39309 180.80341 235.57119 185.7913 233.27539 194.60547 C 229.93017 207.44862 223.11451 216.33125 213.19922 220.76367 C 206.56944 223.72737 194.29742 224.62086 187.33789 222.64648 C 176.73411 219.63822 165.98261 210.84998 161.03125 201.14453 C 157.31946 193.86878 155.90919 183.51903 157.51758 175.34375 C 159.25987 166.48781 162.03736 161.04728 168.1543 154.50781 C 175.87142 146.25757 186.36882 141.76261 197.05664 141.50195 z "
       d="m 165.125,1.1074219 c -14.27408,-0.34672178 -29.32109,6.9548989 -38.18164,19.0253901 -10.18815,13.879045 -11.30602,29.785306 -3.32422,49.076172 0.12076,0.291853 0.24526,0.664084 0.14844,1.126953 -0.0968,0.46287 -0.45785,0.861365 -0.83399,1.078125 -0.75228,0.433522 -1.69946,0.573773 -3.36718,0.728516 -3.33544,0.309487 -9.47158,0.440569 -20.724613,0.613281 -12.168887,0.186769 -18.36096,0.295981 -22.181641,0.720703 -3.820681,0.424723 -5.244282,1.11175 -8.314453,2.615235 -10.002499,4.898302 -17.344771,14.495451 -20.236328,26.562503 -0.5552,2.31694 -8.823591,34.82088 -18.4375,72.5 -15.907249,62.34417 -17.486723,69.39821 -17.837891,79.54687 -0.173524,5.01484 -0.191656,7.94296 0.111329,10.19922 0.302984,2.25626 0.913179,3.89079 2.103515,6.49219 4.261354,9.31288 13.459655,17.32648 23.375,20.35351 -0.147484,-0.045 -0.02243,-0.007 0.111328,0.006 0.133761,0.0125 0.331093,0.0252 0.582031,0.0391 0.501877,0.0278 1.219362,0.0561 2.13086,0.084 1.822995,0.0558 4.430077,0.11123 7.728515,0.16406 6.596877,0.10566 15.962905,0.2039 27.404297,0.28906 22.882785,0.17034 54.067091,0.28836 88.029301,0.31446 59.66642,0.0459 90.59886,0.0523 107.32421,-0.21094 8.36268,-0.13162 13.17393,-0.33117 16.22071,-0.62109 3.04677,-0.28993 4.28019,-0.64879 5.71289,-1.15235 14.51644,-5.10212 24.1692,-19.20667 24.16992,-35.41211 0,-0.0558 -0.13387,-1.08262 -0.41211,-2.49023 -0.27824,-1.40762 -0.68812,-3.32883 -1.21289,-5.68359 -1.04953,-4.70953 -2.55366,-11.15565 -4.36719,-18.75586 -3.62704,-15.20043 -8.49142,-35.01712 -13.4375,-54.82227 -4.94608,-19.80515 -9.97394,-39.59909 -13.92773,-54.75391 -1.9769,-7.5774 -3.68621,-13.9964 -4.98047,-18.67187 -0.64713,-2.337736 -1.19132,-4.240673 -1.61133,-5.628907 -0.42001,-1.388234 -0.77867,-2.35927 -0.82422,-2.447266 -2.49407,-4.818497 -11.35615,-13.293464 -17.26953,-16.378906 -2.32794,-1.214665 -3.65404,-1.787955 -7.53125,-2.169922 -3.87721,-0.381966 -10.22685,-0.510748 -22.15039,-0.6875 -6.91671,-0.102531 -13.20445,-0.237885 -17.76758,-0.373047 -2.28156,-0.06758 -4.13144,-0.135319 -5.41992,-0.199218 -0.64424,-0.03195 -1.14651,-0.06269 -1.50586,-0.09375 -0.17967,-0.01553 -0.31845,-0.03001 -0.44922,-0.05078 -0.0654,-0.01039 -0.12384,-0.01964 -0.22656,-0.05078 -0.0514,-0.01557 -0.11122,-0.02872 -0.23437,-0.101562 -0.0616,-0.03642 -0.1432,-0.08685 -0.2461,-0.207032 -0.0514,-0.06009 -0.15395,-0.245293 -0.1543,-0.246093 -3.4e-4,-8e-4 -0.0801,-0.382017 -0.0801,-0.382813 0,-0.207061 0.0258,-0.238351 0.041,-0.298828 0.0152,-0.06048 0.0304,-0.111963 0.0488,-0.169922 0.0368,-0.115918 0.0839,-0.25013 0.14258,-0.410156 0.11729,-0.320052 0.28103,-0.742481 0.48242,-1.246094 0.40277,-1.007226 0.95497,-2.336614 1.5625,-3.753906 C 216.98601,37.92501 200.42616,7.1357472 171.17578,1.7285156 169.18768,1.3609955 167.16378,1.1569444 165.125,1.1074219 Z m -3.43945,2.3730469 c 13.89511,-0.6815646 21.5837,2.0906044 31.49414,11.3613282 14.77105,13.817601 18.55348,33.468827 9.87695,51.419922 -0.75455,1.56112 -1.37672,3.166085 -1.75781,4.455078 -0.19055,0.644496 -0.31944,1.212988 -0.37891,1.632812 -0.0595,0.419824 0.006,0.721701 -0.0371,0.609375 -0.016,-0.04166 -0.0285,0.06212 0.59961,0.240235 0.62812,0.178113 1.75375,0.343244 3.48828,0.458984 3.46907,0.231481 9.39134,0.298828 19.22461,0.298828 13.2658,0 21.21984,0.220941 26.95703,1.228516 5.7372,1.007575 9.25767,2.861406 13.3125,5.9375 5.09204,3.862932 7.85431,5.871941 11.6836,17.117187 3.82929,11.245246 8.96597,31.902466 19.46484,73.853516 10.76986,43.03385 16.23158,64.99676 18.31445,77.66406 1.04144,6.33365 1.24447,10.36556 0.80079,13.56055 -0.44369,3.19499 -1.54565,5.49166 -2.95313,8.2207 -3.66184,7.10018 -8.87483,12.31495 -16.17578,16.19922 l -5.52539,2.93945 a 0.96035362,0.96035362 0 0 1 -0.44922,0.11329 l -124.30664,0.23828 c -49.88116,0.0953 -81.15665,0.0823 -100.371094,-0.0977 -9.607223,-0.09 -16.197875,-0.22185 -20.603516,-0.4043 -2.20282,-0.0912 -3.85723,-0.19492 -5.082031,-0.31445 -1.224802,-0.11953 -1.988718,-0.23075 -2.574219,-0.44141 -9.743188,-3.50541 -17.666917,-10.70316 -21.652344,-19.71289 -1.773544,-4.00937 -2.130045,-7.12499 -1.80664,-15.39843 0.347994,-8.90254 2.859758,-19.91212 17.90039,-78.87696 9.610902,-37.67827 17.930335,-70.40892 18.425781,-72.47265 2.886178,-12.022085 9.053351,-20.144492 19.498047,-25.650394 2.874199,-1.515126 4.583939,-2.369237 8.65625,-2.804687 4.072312,-0.43545 10.556939,-0.521833 23.488286,-0.697266 8.11324,-0.110068 14.65926,-0.303565 19.21289,-0.558594 2.27681,-0.127514 4.05754,-0.270803 5.26757,-0.421875 0.56396,-0.07041 0.97489,-0.143718 1.26172,-0.208984 -0.008,-0.05545 -0.005,-0.07613 -0.0176,-0.142578 -0.0767,-0.405854 -0.24354,-0.994732 -0.48243,-1.685547 -0.47777,-1.381631 -1.24536,-3.181759 -2.17578,-5.015625 -1.62662,-3.20611 -2.54757,-5.210058 -3.02734,-7.847656 -0.47978,-2.637598 -0.5254,-5.819017 -0.52539,-11.535157 -10e-6,-5.524966 0.0651,-8.744095 0.5,-11.363281 0.43485,-2.619186 1.25331,-4.582286 2.64844,-7.421875 4.0512,-8.245634 12.68722,-16.843465 20.92773,-20.832031 5.15417,-2.4947255 8.61792,-3.2383678 16.89844,-3.6445312 z m 2.37109,16.0468752 c -10.06489,0 -20.97804,7.312726 -25.4043,17.111328 -5.82318,12.891024 0.84774,28.751051 14.90625,35.107422 16.96,7.66824 37.31641,-5.940819 37.31641,-25.003907 0,-14.468249 -12.57768,-27.214843 -26.81836,-27.214843 z m -0.69922,1.77539 c 1.66517,-0.125525 3.2273,-0.06971 4.59961,0.226563 9.0834,1.961054 15.30743,6.977272 19.13672,15.423828 3.06293,6.75609 2.95165,13.18354 -0.33008,20.142578 -3.16035,6.701674 -6.51697,9.997512 -13.3164,13.080078 -6.98886,3.168452 -13.36737,2.978132 -20.52735,-0.589844 -8.9889,-4.479355 -15.08203,-13.769078 -15.08203,-23.144531 0,-3.255837 1.29573,-7.163856 3.23047,-10.804687 1.93473,-3.640831 4.50845,-6.995291 7.28125,-9.003907 4.07077,-2.948835 10.01233,-4.953508 15.00781,-5.330078 z M 164.13672,90.25 c -43.21412,-0.0033 -64.99441,0.009 -76.609376,0.798828 -5.807484,0.39493 -9.056204,0.991405 -11.123047,1.8125 -2.066844,0.821095 -3.029945,1.837035 -4.490235,3.402344 -2.145969,2.300305 -3.174729,3.516552 -4.605468,7.554688 -1.430739,4.03813 -3.175477,10.84616 -6.453125,23.88477 -3.351671,13.3331 -11.837563,47.09743 -18.857422,75.03124 -3.50875,13.96222 -6.697345,27.09408 -9.00586,37 -1.154257,4.95297 -2.088669,9.1015 -2.732421,12.13672 -0.321876,1.51761 -0.571536,2.75638 -0.738282,3.67383 -0.166745,0.91745 -0.24047,1.59586 -0.240234,1.64649 0.0094,2.02298 0.894645,4.85208 2.277344,7.46484 1.382698,2.61276 3.263896,5.0279 5.052734,6.35352 1.253908,0.9292 4.762004,2.34573 7.345703,2.85156 0.02994,0.006 0.428916,0.0499 0.980469,0.082 0.551553,0.0321 1.301392,0.0657 2.234375,0.0977 1.865965,0.0639 4.463072,0.12554 7.703125,0.18554 6.480105,0.12001 15.535183,0.22933 26.498047,0.32422 21.925723,0.18979 51.487473,0.31789 83.390623,0.33789 65.16727,0.0409 96.07308,0.16141 111.41602,-0.76172 7.67147,-0.46156 11.42707,-1.20757 13.53711,-2.22851 2.11004,-1.02095 2.7826,-2.34292 4.49804,-4.48242 1.55555,-1.94007 2.58544,-3.19754 3.08985,-5.34766 0.50441,-2.15012 0.46972,-5.32055 -0.42774,-10.90234 -1.79491,-11.1636 -6.9824,-31.851 -17.38281,-73.33399 -5.14719,-20.53 -10.02568,-39.58001 -13.73828,-53.72851 -1.8563,-7.07426 -3.42183,-12.92379 -4.58203,-17.11719 -0.5801,-2.0967 -1.05792,-3.78039 -1.41992,-4.99024 -0.18101,-0.60492 -0.33285,-1.09207 -0.45118,-1.44726 -0.11832,-0.35519 -0.2288,-0.613328 -0.2207,-0.597658 -2.03977,-3.9445 -6.10078,-6.954137 -11.70312,-8.50586 -0.21976,-0.06087 -0.96329,-0.174274 -2.05079,-0.263671 -1.08749,-0.0894 -2.55728,-0.17305 -4.4082,-0.25 -3.70184,-0.153901 -8.93354,-0.280042 -15.77344,-0.38086 -13.6798,-0.201634 -33.7919,-0.29878 -61.00976,-0.300781 z m -51.77344,2.634766 c 12.87996,-0.04449 30.15061,0.03153 53.43359,0.113281 l 84.42774,0.294922 a 0.96035362,0.96035362 0 0 1 0.65234,0.259765 l 2.95313,2.763672 c 1.69525,1.586102 3.51239,3.695734 4.26562,5.093754 0.15006,0.27852 0.20979,0.49577 0.33789,0.89062 0.12811,0.39485 0.28477,0.91121 0.47071,1.55078 0.37187,1.27916 0.86013,3.04547 1.44922,5.23242 1.17817,4.37392 2.7597,10.43284 4.60546,17.6211 3.69153,14.37651 8.44215,33.2653 13.13477,52.17187 4.69262,18.90658 9.32806,37.83037 12.79102,52.2793 1.73148,7.22446 3.16925,13.32956 4.17578,17.75781 0.50326,2.21413 0.89892,4.00938 1.16992,5.32031 0.1355,0.65547 0.23834,1.18947 0.31055,1.60157 0.0722,0.41209 0.12109,0.64064 0.12109,0.94922 0,5.56066 -3.92935,11.5949 -9.14649,14.18945 -1.05716,0.52575 -2.34659,0.94369 -5.23828,1.23437 -2.89168,0.29069 -7.47211,0.49031 -15.39257,0.63477 -15.84093,0.28891 -45.03028,0.3551 -100.46094,0.43359 -32.05947,0.0454 -61.75228,-0.0228 -83.76758,-0.16797 -11.00765,-0.0726 -20.095894,-0.16431 -26.603516,-0.27148 -3.25381,-0.0536 -5.862968,-0.11105 -7.748047,-0.17187 -0.942539,-0.0304 -1.703052,-0.0612 -2.279296,-0.0937 -0.576245,-0.0326 -0.919244,-0.0527 -1.234375,-0.11524 -7.673504,-1.52183 -14.134766,-8.48362 -14.134766,-15.54883 0,-0.30437 0.04349,-0.45823 0.105469,-0.79687 0.06198,-0.33865 0.1511,-0.78146 0.267578,-1.33008 0.232955,-1.09724 0.574981,-2.61562 1.013672,-4.51367 0.877382,-3.79611 2.145337,-9.10799 3.708984,-15.54883 3.127293,-12.88168 7.438294,-30.28095 12.181641,-49.09375 9.48533,-37.62022 17.968783,-71.4707 18.816406,-75.0625 0.889365,-3.76869 2.541989,-8.35322 3.886719,-10.564453 0.78814,-1.295991 1.375118,-2.475196 2.505859,-3.480469 1.130742,-1.005272 2.722489,-1.721325 5.3125,-2.230469 5.180021,-1.018287 14.588343,-1.335601 33.908202,-1.402343 z m -12.00976,45.972654 c -1.993156,-0.075 -4.081168,0.84296 -6.476567,2.98242 a 0.96035362,0.96035362 0 0 1 -0.002,0 l -3.291016,2.93946 -0.316406,35.79297 c -0.170993,19.3241 -0.193905,29.48913 0.449219,35.18945 0.321562,2.85016 0.804852,4.55141 1.458984,5.75 0.654132,1.19859 1.500273,1.9691 2.763672,2.96289 3.009033,2.3669 6.140267,2.55055 10.109377,0.49805 1.88153,-0.97298 3.09772,-2.26296 3.93164,-4.33399 0.83392,-2.07102 1.23242,-4.95623 1.23242,-8.92578 v -6.74414 a 0.96035362,0.96035362 0 0 1 1.62891,-0.68945 l 10.85547,10.5332 c 3.61256,3.50546 6.59909,6.18609 8.94335,8.0332 2.34427,1.84712 4.11589,2.83799 4.9336,3.01758 6.0654,1.33219 10.0417,-1.43323 11.50781,-5.53711 1.46611,-4.10387 0.30105,-9.65108 -4.79297,-13.87109 -2.00899,-1.66427 -8.39388,-7.68753 -14.38867,-13.54883 l -10.88281,-10.64063 a 0.96035362,0.96035362 0 0 1 0.008,-1.38281 l 14.47656,-13.82812 c 7.78804,-7.43907 11.85262,-11.5513 13.41016,-14.37891 0.77877,-1.4138 0.96222,-2.44151 0.80469,-3.58203 -0.15754,-1.14052 -0.72041,-2.44057 -1.60157,-4.14453 -0.97062,-1.87696 -2.02771,-3.07435 -3.39257,-3.8457 -1.36487,-0.77136 -3.10161,-1.13672 -5.48829,-1.13672 -1.46781,0 -2.54388,0.26949 -4.53125,1.57422 -1.98736,1.30472 -4.78022,3.65706 -9.26562,7.6582 l -10.625,9.47656 a 0.96035362,0.96035362 0 0 1 -1.59961,-0.7168 v -6.27343 c 0,-2.80935 -0.10554,-4.35577 -0.54492,-5.5293 -0.43938,-1.17353 -1.25513,-2.14575 -2.92969,-3.82031 -2.32283,-2.32282 -4.39144,-3.40348 -6.38476,-3.47852 z m 97.58398,0.60156 c -10.14173,0.042 -11.29269,0.25825 -18.0293,3.51172 -23.39629,11.29939 -32.29144,38.24821 -20.15234,61.02344 5.23601,9.8238 16.49493,18.53669 27.61328,21.3457 7.18765,1.81594 20.94698,0.52555 27.47461,-2.5625 13.21606,-6.25221 22.43945,-22.22624 22.43945,-39.16211 0,-3.95969 -0.41224,-5.01576 -2.94922,-7.55273 l -2.94921,-2.94727 H 217.25 203.11328 l -2.94922,2.94727 c -2.08619,2.08619 -3.0625,4.35171 -3.0625,6.58789 0,2.23618 0.97631,4.50172 3.0625,6.58789 1.32401,1.32402 2.21859,2.01058 3.31836,2.41211 1.09977,0.40153 2.51264,0.53516 4.8418,0.53516 1.58151,0 3.01599,0.095 4.10156,0.25586 0.54279,0.0804 0.99219,0.17176 1.37891,0.30664 0.19336,0.0674 0.37174,0.13883 0.57226,0.2832 0.20052,0.14437 0.51587,0.44917 0.51367,0.94922 -0.004,0.88798 -0.379,1.72483 -0.90039,2.67578 -0.52139,0.95095 -1.22545,1.97521 -2.02148,2.97852 -1.59206,2.00661 -3.48802,3.91056 -5.22461,4.80859 -4.55863,2.35736 -12.38499,2.38035 -17.64258,0.18359 -5.90972,-2.46924 -10.44006,-7.56921 -12.86133,-13.35742 -2.42126,-5.78821 -2.75151,-12.31915 -0.0527,-17.66992 3.31119,-6.565 8.20535,-11.04798 14.00781,-13.08984 5.80247,-2.04187 12.4691,-1.63097 19.26172,1.37304 3.94914,1.7465 6.51879,2.54583 8.4375,2.50977 1.91872,-0.0361 3.34055,-0.80983 5.32422,-2.61719 3.56181,-3.24524 4.52704,-6.34549 3.4043,-9.45508 -1.12275,-3.10958 -4.60331,-6.3919 -10.52149,-9.30469 -7.02192,-3.45603 -7.80802,-3.59987 -18.16406,-3.55664 z m -97.16211,0.93164 c 1.77348,0.19132 3.39966,1.20629 5.05078,2.85743 1.22715,1.22714 2.06179,2.37098 2.49024,4.00976 0.42844,1.63879 0.5039,3.69849 0.5039,7.04883 -1e-5,2.76706 0.11083,4.6911 0.33594,5.88281 0.11256,0.59586 0.2562,1.00387 0.37891,1.22461 0.0814,0.14654 0.11216,0.14374 0.15234,0.17188 0.15275,-0.0552 0.39553,-0.16388 0.70703,-0.3418 0.65419,-0.37364 1.57225,-1.00274 2.67969,-1.84375 2.21488,-1.68203 5.19989,-4.21702 8.63672,-7.36523 6.33842,-5.80616 10.21462,-9.0376 13.35351,-10.23633 1.56945,-0.59937 3.03724,-0.64284 4.32422,-0.0977 1.28698,0.54519 2.33211,1.57994 3.39844,2.93555 1.10714,1.4075 1.97846,2.63431 2.25781,4.08984 0.27935,1.45553 -0.14364,2.99528 -1.26172,4.71094 -2.23614,3.43132 -7.26912,8.05238 -16.87695,16.70508 -2.6755,2.40953 -5.2347,4.83386 -7.19141,6.78711 -0.97835,0.97662 -1.80622,1.83727 -2.41796,2.51172 -0.61175,0.67444 -1.03188,1.23855 -1.06641,1.30273 -0.11943,0.22201 -0.16345,0.28729 0.0488,0.80469 0.21228,0.51739 0.76887,1.37404 1.81445,2.60351 2.09116,2.45894 6.08639,6.44216 12.99414,13.12696 8.70161,8.42074 13.29744,12.98724 15.23828,16.37695 0.97042,1.69485 1.26429,3.23048 0.8457,4.62305 -0.41858,1.39256 -1.40922,2.51078 -2.67187,3.77343 -1.2128,1.21281 -2.25797,2.17607 -3.56445,2.63282 -1.30649,0.45674 -2.77524,0.25746 -4.38477,-0.57618 -3.21905,-1.66727 -7.5488,-5.75975 -15.69726,-13.5957 l -11.58594,-11.14258 -0.44922,9.21875 c -0.24971,5.11891 -0.4389,8.01391 -0.9082,10.00977 -0.4693,1.99586 -1.3623,3.11868 -2.60743,4.125 -1.66754,1.34775 -3.24024,2.14536 -4.90429,2.21875 -1.664056,0.0734 -3.280831,-0.58822 -4.998049,-1.79102 l -2.457032,-1.71875 a 0.96035362,0.96035362 0 0 1 -0.410156,-0.78711 V 182.65039 144.6543 a 0.96035362,0.96035362 0 0 1 0.410156,-0.78711 l 2.457032,-1.71875 c 1.837076,-1.28676 3.601593,-1.94912 5.374999,-1.75782 z m 96.25781,0.1504 c 6.56503,-0.16011 13.20486,1.24289 19.33985,4.30859 3.98805,1.99286 6.60716,3.8533 7.95312,6.06836 1.34596,2.21505 1.17877,4.74908 -0.16601,7.34961 -1.25597,2.42877 -2.96924,3.99417 -5.32227,4.29687 -2.35303,0.3027 -5.13796,-0.50865 -8.92969,-2.18554 -14.13056,-6.24921 -27.82629,-1.75471 -34.39648,11.21093 -8.43393,16.64356 3.7174,36.06641 22.58984,36.06641 6.8752,0 10.31125,-1.55348 14.85156,-6.72461 1.70089,-1.93721 2.87732,-3.60802 3.53125,-4.95508 0.65394,-1.34705 0.75748,-2.31546 0.55469,-2.95117 -0.20278,-0.63571 -0.71493,-1.14774 -1.88086,-1.56836 -1.16593,-0.42062 -2.9255,-0.66406 -5.22656,-0.66406 -3.49722,0 -6.2777,-0.63072 -8.26172,-2.00586 -1.98402,-1.37514 -3.06054,-3.5484 -3.06055,-6.13672 10e-6,-1.93794 1.04306,-4.20518 2.49024,-5.65234 1.06682,-1.06682 2.32445,-1.7871 4.58984,-2.11133 2.26539,-0.32423 5.63935,-0.37891 11.51758,-0.37891 6.0915,0 9.44296,0.0386 11.66992,0.38672 2.22697,0.34808 3.40971,1.16551 4.50196,2.33789 1.53761,1.65044 2.33282,3.90047 2.43554,6.76758 0.10273,2.86711 -0.44881,6.39196 -1.60937,10.84766 -3.39819,13.0465 -10.41131,22.23239 -20.61328,26.79296 -6.96719,3.11453 -19.19779,4.00572 -26.51563,1.92969 -10.91221,-3.09576 -21.79995,-11.99256 -26.90039,-21.99023 -3.83456,-7.51641 -5.25815,-17.99167 -3.59961,-26.42188 1.76522,-8.9725 4.67758,-14.67904 10.87695,-21.30664 7.89502,-8.44042 18.6386,-13.0437 29.58008,-13.31054 z" />
  </g>
</svg>
