<?xml version="1.0" encoding="UTF-8" standalone="no"?>
<!-- Created with Inkscape (http://www.inkscape.org/) -->

<svg
   width="1600"
   height="1600"
   viewBox="0 0 423.33334 423.33333"
   version="1.1"
   id="svg1"
   inkscape:version="1.3.2 (091e20e, 2023-11-25, custom)"
   sodipodi:docname="world.svg"
   inkscape:export-filename="..\Icones_canvi_png\heigh.png"
   inkscape:export-xdpi="96"
   inkscape:export-ydpi="96"
   xmlns:inkscape="http://www.inkscape.org/namespaces/inkscape"
   xmlns:sodipodi="http://sodipodi.sourceforge.net/DTD/sodipodi-0.dtd"
   xmlns="http://www.w3.org/2000/svg"
   xmlns:svg="http://www.w3.org/2000/svg">
  <sodipodi:namedview
     id="namedview1"
     pagecolor="#ffffff"
     bordercolor="#000000"
     borderopacity="0.25"
     inkscape:showpageshadow="2"
     inkscape:pageopacity="0.0"
     inkscape:pagecheckerboard="0"
     inkscape:deskcolor="#d1d1d1"
     inkscape:document-units="mm"
     inkscape:zoom="0.35055065"
     inkscape:cx="1406.3588"
     inkscape:cy="780.2011"
     inkscape:window-width="1920"
     inkscape:window-height="1001"
     inkscape:window-x="-9"
     inkscape:window-y="-9"
     inkscape:window-maximized="1"
     inkscape:current-layer="layer1" />
  <defs
     id="defs1">
    <clipPath
       clipPathUnits="userSpaceOnUse"
       id="clipPath6">
      <path
         d="M 0,1200 H 1200 V 0 H 0 Z"
         transform="translate(-841.07125,-852.41822)"
         id="path6" />
    </clipPath>
    <clipPath
       clipPathUnits="userSpaceOnUse"
       id="clipPath8">
      <path
         d="M 0,1200 H 1200 V 0 H 0 Z"
         transform="translate(-17.016075,-44.605501)"
         id="path8" />
    </clipPath>
    <clipPath
       clipPathUnits="userSpaceOnUse"
       id="clipPath10">
      <path
         d="M 0,1200 H 1200 V 0 H 0 Z"
         transform="translate(-868.5826,-765.70872)"
         id="path10" />
    </clipPath>
    <clipPath
       clipPathUnits="userSpaceOnUse"
       id="clipPath12">
      <path
         d="M 0,1200 H 1200 V 0 H 0 Z"
         transform="translate(-1203.7281)"
         id="path12" />
    </clipPath>
    <clipPath
       clipPathUnits="userSpaceOnUse"
       id="clipPath10-6">
      <path
         d="M 0,1200 H 1200 V 0 H 0 Z"
         transform="translate(-868.5826,-765.70872)"
         id="path10-4" />
    </clipPath>
    <clipPath
       clipPathUnits="userSpaceOnUse"
       id="clipPath14">
      <path
         d="M 0,1200 H 1200 V 0 H 0 Z"
         transform="translate(-991.49245,-22.001626)"
         id="path14" />
    </clipPath>
    <clipPath
       clipPathUnits="userSpaceOnUse"
       id="clipPath16">
      <path
         d="M 0,1200 H 1200 V 0 H 0 Z"
         transform="translate(-772.33074,-714.48362)"
         id="path16" />
    </clipPath>
    <clipPath
       clipPathUnits="userSpaceOnUse"
       id="clipPath18">
      <path
         d="M 0,1200 H 1200 V 0 H 0 Z"
         transform="translate(-971.77952,-888.90692)"
         id="path18" />
    </clipPath>
    <clipPath
       clipPathUnits="userSpaceOnUse"
       id="clipPath20">
      <path
         d="M 0,1200 H 1200 V 0 H 0 Z"
         transform="translate(-880.8877,-733.41972)"
         id="path20" />
    </clipPath>
    <clipPath
       clipPathUnits="userSpaceOnUse"
       id="clipPath22">
      <path
         d="M 0,1200 H 1200 V 0 H 0 Z"
         transform="translate(-724.93779,-806.99302)"
         id="path22" />
    </clipPath>
    <clipPath
       clipPathUnits="userSpaceOnUse"
       id="clipPath24">
      <path
         d="M 0,1200 H 1200 V 0 H 0 Z"
         transform="translate(-869.96852,-599.50081)"
         id="path24" />
    </clipPath>
    <clipPath
       clipPathUnits="userSpaceOnUse"
       id="clipPath26">
      <path
         d="M 0,1200 H 1200 V 0 H 0 Z"
         transform="translate(-599.94909,-644.15282)"
         id="path26" />
    </clipPath>
    <clipPath
       clipPathUnits="userSpaceOnUse"
       id="clipPath28">
      <path
         d="M 0,1200 H 1200 V 0 H 0 Z"
         transform="translate(-621.76854,-604.45811)"
         id="path28" />
    </clipPath>
    <clipPath
       clipPathUnits="userSpaceOnUse"
       id="clipPath30">
      <path
         d="M 0,1200 H 1200 V 0 H 0 Z"
         transform="translate(-650.52002,-337.31813)"
         id="path30" />
    </clipPath>
    <clipPath
       clipPathUnits="userSpaceOnUse"
       id="clipPath32">
      <path
         d="M 0,1200 H 1200 V 0 H 0 Z"
         transform="translate(-378.17911,-599.50081)"
         id="path32" />
    </clipPath>
    <clipPath
       clipPathUnits="userSpaceOnUse"
       id="clipPath34">
      <path
         d="M 0,1200 H 1200 V 0 H 0 Z"
         transform="translate(-607.05819,-336.34118)"
         id="path34" />
    </clipPath>
    <clipPath
       clipPathUnits="userSpaceOnUse"
       id="clipPath36">
      <path
         d="M 0,1200 H 1200 V 0 H 0 Z"
         transform="translate(-521.47854,-142.3554)"
         id="path36" />
    </clipPath>
    <clipPath
       clipPathUnits="userSpaceOnUse"
       id="clipPath38">
      <path
         d="M 0,1200 H 1200 V 0 H 0 Z"
         transform="translate(-663.82704,-976.38152)"
         id="path38" />
    </clipPath>
    <clipPath
       clipPathUnits="userSpaceOnUse"
       id="clipPath41">
      <path
         d="M 0,1200 H 1200 V 0 H 0 Z"
         transform="translate(-947.76302,-114.07463)"
         id="path41" />
    </clipPath>
    <clipPath
       clipPathUnits="userSpaceOnUse"
       id="clipPath43">
      <path
         d="M 0,1200 H 1200 V 0 H 0 Z"
         transform="translate(-460.76394,-621.53951)"
         id="path43" />
    </clipPath>
    <clipPath
       clipPathUnits="userSpaceOnUse"
       id="clipPath45">
      <path
         d="M 0,1200 H 1200 V 0 H 0 Z"
         transform="translate(-682.08339,-621.53951)"
         id="path45" />
    </clipPath>
    <clipPath
       clipPathUnits="userSpaceOnUse"
       id="clipPath47">
      <path
         d="M 0,1200 H 1200 V 0 H 0 Z"
         transform="translate(-905.5519,-621.53951)"
         id="path47" />
    </clipPath>
    <clipPath
       clipPathUnits="userSpaceOnUse"
       id="clipPath49">
      <path
         d="M 0,1200 H 1200 V 0 H 0 Z"
         transform="translate(-682.08339,-399.63278)"
         id="path49" />
    </clipPath>
    <clipPath
       clipPathUnits="userSpaceOnUse"
       id="clipPath51">
      <path
         d="M 0,1200 H 1200 V 0 H 0 Z"
         transform="translate(-460.76394,-399.63278)"
         id="path51" />
    </clipPath>
    <clipPath
       clipPathUnits="userSpaceOnUse"
       id="clipPath53">
      <path
         d="M 0,1200 H 1200 V 0 H 0 Z"
         transform="translate(-762.36977,-800.46422)"
         id="path53" />
    </clipPath>
    <clipPath
       clipPathUnits="userSpaceOnUse"
       id="clipPath55">
      <path
         d="M 0,1200 H 1200 V 0 H 0 Z"
         transform="translate(-591.42076,-47.776201)"
         id="path55" />
    </clipPath>
    <clipPath
       clipPathUnits="userSpaceOnUse"
       id="clipPath57">
      <path
         d="M 0,1200 H 1200 V 0 H 0 Z"
         transform="translate(-115.092,-1015.4968)"
         id="path57" />
    </clipPath>
    <clipPath
       clipPathUnits="userSpaceOnUse"
       id="clipPath59">
      <path
         d="M 0,1200 H 1200 V 0 H 0 Z"
         transform="translate(-414.50776,-664.70282)"
         id="path59" />
    </clipPath>
    <clipPath
       clipPathUnits="userSpaceOnUse"
       id="clipPath61">
      <path
         d="M 0,1200 H 1200 V 0 H 0 Z"
         transform="translate(-908.88452,-600.11752)"
         id="path61" />
    </clipPath>
    <clipPath
       clipPathUnits="userSpaceOnUse"
       id="clipPath63">
      <path
         d="M 0,1200 H 1200 V 0 H 0 Z"
         transform="translate(-1190.1308,-783.79972)"
         id="path63" />
    </clipPath>
    <clipPath
       clipPathUnits="userSpaceOnUse"
       id="clipPath65">
      <path
         d="M 0,1200 H 1200 V 0 H 0 Z"
         transform="translate(-1140.3638,-976.03752)"
         id="path65" />
    </clipPath>
    <clipPath
       clipPathUnits="userSpaceOnUse"
       id="clipPath67">
      <path
         d="M 0,1200 H 1200 V 0 H 0 Z"
         transform="translate(-1140.3863,-593.49091)"
         id="path67" />
    </clipPath>
    <clipPath
       clipPathUnits="userSpaceOnUse"
       id="clipPath69">
      <path
         d="M 0,1200 H 1200 V 0 H 0 Z"
         transform="translate(-401.70376,-1141.4133)"
         id="path69" />
    </clipPath>
    <clipPath
       clipPathUnits="userSpaceOnUse"
       id="clipPath71">
      <path
         d="M 0,1200 H 1200 V 0 H 0 Z"
         transform="translate(-783.24752,-1141.4102)"
         id="path71" />
    </clipPath>
    <clipPath
       clipPathUnits="userSpaceOnUse"
       id="clipPath73">
      <path
         d="M 0,1200 H 1200 V 0 H 0 Z"
         transform="translate(-592.35301,-1141.3953)"
         id="path73" />
    </clipPath>
    <clipPath
       clipPathUnits="userSpaceOnUse"
       id="clipPath75">
      <path
         d="M 0,1200 H 1200 V 0 H 0 Z"
         transform="translate(-974.20127,-1141.3992)"
         id="path75" />
    </clipPath>
    <clipPath
       clipPathUnits="userSpaceOnUse"
       id="clipPath77">
      <path
         d="M 0,1200 H 1200 V 0 H 0 Z"
         transform="translate(-1148.004,-1190.828)"
         id="path77" />
    </clipPath>
    <clipPath
       clipPathUnits="userSpaceOnUse"
       id="clipPath79">
      <path
         d="M 0,1200 H 1200 V 0 H 0 Z"
         transform="translate(-228.42826,-1141.4955)"
         id="path79" />
    </clipPath>
    <clipPath
       clipPathUnits="userSpaceOnUse"
       id="clipPath81">
      <path
         d="M 0,1200 H 1200 V 0 H 0 Z"
         transform="translate(-1140.3938,-402.90924)"
         id="path81" />
    </clipPath>
    <clipPath
       clipPathUnits="userSpaceOnUse"
       id="clipPath83">
      <path
         d="M 0,1200 H 1200 V 0 H 0 Z"
         transform="translate(-1140.3938,-202.82341)"
         id="path83" />
    </clipPath>
    <clipPath
       clipPathUnits="userSpaceOnUse"
       id="clipPath85">
      <path
         d="M 0,1200 H 1200 V 0 H 0 Z"
         transform="translate(-564.12676,-1083.5258)"
         id="path85" />
    </clipPath>
    <clipPath
       clipPathUnits="userSpaceOnUse"
       id="clipPath87">
      <path
         d="M 0,1200 H 1200 V 0 H 0 Z"
         transform="translate(-600.48902,-416.01984)"
         id="path87" />
    </clipPath>
    <clipPath
       clipPathUnits="userSpaceOnUse"
       id="clipPath89">
      <path
         d="M 0,1200 H 1200 V 0 H 0 Z"
         transform="translate(-193.2525,-204.77288)"
         id="path89" />
    </clipPath>
    <clipPath
       clipPathUnits="userSpaceOnUse"
       id="clipPath93">
      <path
         d="M 0,1200 H 1200 V 0 H 0 Z"
         transform="translate(-346.49851,-962.06963)"
         id="path93" />
    </clipPath>
    <clipPath
       clipPathUnits="userSpaceOnUse"
       id="clipPath96">
      <path
         d="M 0,1200 H 1200 V 0 H 0 Z"
         transform="translate(-750.60902,-373.95481)"
         id="path96" />
    </clipPath>
    <clipPath
       clipPathUnits="userSpaceOnUse"
       id="clipPath98">
      <path
         d="M 0,1200 H 1200 V 0 H 0 Z"
         transform="translate(-598.64851,-36.834601)"
         id="path98" />
    </clipPath>
  </defs>
  <g
     inkscape:label="Capa 1"
     inkscape:groupmode="layer"
     id="layer1">
    <path
       id="path9"
       d="m 0,0 c 0,-119.282 -48.089,-227.333 -125.938,-305.822 -78.689,-79.336 -187.783,-128.469 -308.353,-128.469 -239.853,0 -434.292,194.439 -434.292,434.291 0,239.852 194.439,434.291 434.292,434.291 C -194.439,434.291 0,239.852 0,0 Z"
       style="display:none;fill:none;stroke:#891811;stroke-width:0;stroke-linecap:butt;stroke-linejoin:miter;stroke-miterlimit:10;stroke-dasharray:none;stroke-opacity:1"
       transform="matrix(0.35279157,0,0,-0.34323299,310.84454,152.02677)"
       clip-path="url(#clipPath10)"
       sodipodi:insensitive="true" />
    <path
       id="path95"
       d="m 0,0 c 3.109,-0.186 4.196,-0.59 4.942,-0.248 81.664,37.443 141.31,97.357 181.246,177.464 4.614,9.256 -0.558,9.655 -7.458,9.64 -34.622,-0.076 -69.246,-0.297 -103.864,0.1 -10.165,0.117 -13.127,-4.8 -14.867,-13.753 C 51.513,129.561 39.553,86.887 21.729,46.053 15.133,30.941 7.678,16.205 0,0 Z m -300.643,-2.314 c -1.524,4.942 -1.796,6.878 -2.666,8.492 -28.488,52.845 -46.307,109.387 -57.622,168.073 -1.894,9.821 -6.454,12.767 -15.765,12.683 -33.641,-0.303 -67.292,-0.477 -100.926,0.087 -12.712,0.213 -12.361,-4.084 -7.643,-13.483 24.21,-48.229 57.192,-89.415 98.744,-123.68 25.244,-20.818 52.537,-38.462 85.878,-52.172 z M 0.99,676.321 c 0.745,-2.471 1.043,-4.805 2.09,-6.732 27.441,-50.499 44.793,-104.582 55.607,-160.73 2.822,-14.651 7.931,-20.29 23.494,-19.627 30.608,1.304 61.312,0.352 91.976,0.397 16.854,0.025 16.979,0.148 8.994,15.782 -37.25,72.942 -92.318,128.224 -165.005,165.91 -4.961,2.572 -9.779,6.378 -17.156,5 z m -302.283,-0.755 c -2.123,0.817 -3.122,1.609 -3.834,1.404 -2.792,-0.801 -5.619,-1.664 -8.21,-2.951 -77.213,-38.347 -134.733,-96.317 -173.104,-173.479 -4.16,-8.364 -2.601,-11.109 6.834,-11.029 34.555,0.293 69.117,0.364 103.67,-0.022 9.905,-0.11 13.146,4.09 14.949,13.393 9.937,51.29 24.985,101.024 47.617,148.273 3.904,8.151 8.011,16.205 12.078,24.411 z M 144.439,264.469 c 19.002,0 38.015,0.394 57.001,-0.157 10.318,-0.299 14.686,3.659 16.281,13.882 6.284,40.274 6.108,80.4 0.042,120.676 -1.467,9.745 -5.698,13.233 -15.27,13.162 -38.977,-0.29 -77.959,-0.361 -116.934,0.035 -10.869,0.111 -13.204,-4.564 -12.277,-14.319 3.785,-39.843 3.829,-79.744 -0.084,-119.58 -1.005,-10.237 2.372,-14.13 12.777,-13.848 19.475,0.528 38.974,0.152 58.464,0.149 z m -589.668,0.021 c 19.977,0 39.957,0.236 59.927,-0.107 8.986,-0.154 12.294,3.49 11.44,12.287 -3.961,40.822 -3.921,81.673 -0.086,122.5 0.784,8.352 -1.403,12.875 -10.842,12.82 -39.951,-0.23 -79.905,-0.189 -119.857,-0.02 -8.276,0.035 -12.317,-3.255 -13.617,-11.611 -6.411,-41.214 -6.707,-82.347 0.047,-123.558 1.439,-8.782 5.434,-12.619 14.524,-12.438 19.481,0.389 38.975,0.12 58.464,0.127 z m 295.384,-77.671 c -40.431,0 -80.862,-0.104 -121.291,0.086 -8.323,0.039 -12.915,-1.339 -10.614,-11.523 13.847,-61.301 33.354,-120.241 72.33,-170.75 39.33,-50.965 79.023,-50.825 118.359,0.321 38.584,50.167 57.919,108.651 71.918,169.392 2.406,10.437 -1.406,12.675 -10.873,12.605 -39.941,-0.299 -79.886,-0.127 -119.829,-0.131 z m -0.123,302.801 c 39.44,0 78.883,0.252 118.318,-0.168 10.473,-0.112 15.214,1.633 12.407,13.783 -12.575,54.42 -30.036,106.804 -60.884,153.953 -8.85,13.527 -19.246,25.728 -31.448,36.33 -26.283,22.835 -50.859,22.988 -77.099,0.413 -8.874,-7.635 -16.996,-16.044 -23.925,-25.53 -36.66,-50.189 -55.842,-107.563 -69.22,-167.413 -2.296,-10.275 2.333,-11.486 10.609,-11.447 40.413,0.194 80.828,0.088 121.242,0.079 z m -0.279,-77.698 c -43.821,0 -87.643,-0.162 -131.463,0.129 -9.422,0.062 -13.746,-2.342 -14.584,-12.884 -3.246,-40.861 -3.208,-81.611 0.077,-122.461 0.773,-9.615 4.478,-12.374 13.521,-12.354 88.129,0.2 176.259,0.236 264.388,-0.038 10.17,-0.032 13.062,3.798 13.851,13.615 3.205,39.878 3.178,79.638 0.155,119.542 -0.891,11.767 -5.037,14.745 -15.943,14.635 -43.33,-0.434 -86.667,-0.179 -130.002,-0.184 z m -0.884,-523.867 c -248.784,0.162 -450.977,201.802 -450.244,450.436 0.731,248.159 197.893,451.433 451.774,450.752 C 108.7,788.549 300.735,581.004 300.685,336.955 300.634,88.739 98.046,-112.108 -151.131,-111.945 Z"
       style="fill:none;stroke:#891811;stroke-width:5;stroke-linecap:butt;stroke-linejoin:miter;stroke-miterlimit:10;stroke-dasharray:none;stroke-opacity:1"
       transform="matrix(0.35277776,0,0,-0.35277776,265.13415,283.6313)"
       clip-path="url(#clipPath96)" />
    <path
       id="path97"
       d="m 0,0 c -180.857,0 -361.715,0 -542.572,0.002 -5.362,0 -10.729,-0.115 -16.086,0.067 -27.874,0.948 -45.397,22.531 -38.753,49.463 24.385,98.853 49.277,197.582 74.052,296.339 4.681,18.66 16.739,28.983 35.94,31.199 17.027,1.966 34.074,0.935 51.118,0.88 6.492,-0.021 10.691,-3.669 14.33,-8.698 15.164,-20.959 31.907,-40.608 49.692,-59.387 2.171,-2.292 6.254,-4.357 4.249,-8.361 -1.844,-3.685 -6.028,-2.481 -9.268,-2.5 -20.961,-0.124 -41.931,-0.423 -62.882,0.059 -10.252,0.235 -15.851,-2.739 -18.49,-13.621 -15.732,-64.861 -31.909,-129.616 -48.508,-194.26 -2.867,-11.164 0.511,-13.739 10.925,-13.624 32.657,0.36 65.322,0.123 97.983,0.123 296.881,-10e-4 593.762,-0.002 890.643,0.004 21.242,0 21.194,0.013 16.006,20.776 -15.236,60.969 -30.779,121.866 -45.367,182.99 -3.186,13.35 -8.839,18.582 -22.814,17.77 -19.919,-1.156 -39.957,-0.343 -59.943,-0.212 -3.221,0.021 -7.472,-1.189 -9.134,2.695 -1.688,3.946 2.288,6.021 4.489,8.336 17.831,18.742 34.568,38.405 49.639,59.426 4.452,6.211 10.027,8.766 17.386,8.688 13.16,-0.141 26.348,0.432 39.477,-0.236 27.891,-1.418 39.377,-10.965 46.126,-37.895 19.897,-79.39 39.659,-158.814 59.469,-238.226 4.009,-16.071 8.134,-32.115 11.959,-48.231 C 607.356,21.162 590.759,0.071 557.2,0.049 408.028,-0.05 258.857,0.002 109.685,0 73.123,0 36.562,0 0,0 Z"
       style="fill:none;stroke:#891811;stroke-width:5;stroke-linecap:butt;stroke-linejoin:miter;stroke-miterlimit:10;stroke-dasharray:none;stroke-opacity:1"
       transform="matrix(0.35277776,0,0,-0.35277776,211.52586,402.55981)"
       clip-path="url(#clipPath98)" />
  </g>
</svg>
